M48
; DRILL file {KiCad (5.1.8-0-10_14)} date Monday, December 21, 2020 at 11:46:00 PM
; FORMAT={-:-/ absolute / inch / decimal}
; #@! TF.CreationDate,2020-12-21T23:46:00+01:00
; #@! TF.GenerationSoftware,Kicad,Pcbnew,(5.1.8-0-10_14)
FMAT,2
INCH
T1C0.0300
T2C0.0315
T3C0.0394
T4C0.0472
%
G90
G05
T1
X4.453Y-2.803
X4.453Y-2.903
X4.453Y-3.003
X4.453Y-3.103
X4.453Y-3.203
X4.453Y-3.303
X4.453Y-3.403
X4.453Y-3.503
X4.453Y-3.603
X4.453Y-3.703
X4.453Y-3.803
X4.453Y-3.903
X4.453Y-4.003
X4.453Y-4.103
X4.453Y-4.203
X4.453Y-4.303
X5.353Y-2.803
X5.353Y-2.903
X5.353Y-3.003
X5.353Y-3.103
X5.353Y-3.203
X5.353Y-3.303
X5.353Y-3.403
X5.353Y-3.503
X5.353Y-3.603
X5.353Y-3.703
X5.353Y-3.803
X5.353Y-3.903
X5.353Y-4.003
X5.353Y-4.103
X5.353Y-4.203
X5.353Y-4.303
X5.353Y-4.403
X5.353Y-4.503
X5.353Y-4.603
X5.353Y-4.703
T2
X5.47Y-2.51
X5.47Y-2.61
X5.495Y-3.22
X5.595Y-3.22
X5.86Y-2.51
X5.86Y-2.61
X5.6Y-2.51
X5.6Y-2.61
X5.73Y-2.51
X5.73Y-2.61
T3
X5.54Y-3.61
X5.54Y-3.71
X5.54Y-3.81
X5.54Y-3.91
X5.54Y-4.01
X5.54Y-4.11
X5.51Y-4.34
X5.61Y-4.34
X5.71Y-4.34
X5.81Y-4.34
X5.505Y-3.365
X5.605Y-3.365
X5.705Y-3.365
X5.81Y-2.75
X5.81Y-2.85
X5.81Y-2.95
X5.81Y-3.05
X5.81Y-3.15
X5.79Y-3.57
X5.79Y-3.67
X5.79Y-3.77
X5.79Y-3.87
X5.79Y-3.97
X5.79Y-4.07
X5.79Y-4.17
T4
X5.58Y-4.72
X5.68Y-4.72
X5.78Y-4.72
T0
M30
