M48
; DRILL file {KiCad (6.0.7-1)-1} date 2022 August 30, Tuesday 20:10:00
; FORMAT={-:-/ absolute / metric / decimal}
; #@! TF.CreationDate,2022-08-30T20:10:00+02:00
; #@! TF.GenerationSoftware,Kicad,Pcbnew,(6.0.7-1)-1
; #@! TF.FileFunction,Plated,1,2,PTH
FMAT,2
METRIC
; #@! TA.AperFunction,Plated,PTH,ComponentDrill
T1C0.762
; #@! TA.AperFunction,Plated,PTH,ComponentDrill
T2C0.800
; #@! TA.AperFunction,Plated,PTH,ComponentDrill
T3C1.000
; #@! TA.AperFunction,Plated,PTH,ComponentDrill
T4C1.200
%
G90
G05
T1
X113.105Y-71.195
X113.105Y-73.735
X113.105Y-76.275
X113.105Y-78.815
X113.105Y-81.355
X113.105Y-83.895
X113.105Y-86.435
X113.105Y-88.975
X113.105Y-91.515
X113.105Y-94.055
X113.105Y-96.595
X113.105Y-99.135
X113.105Y-101.675
X113.105Y-104.215
X113.105Y-106.755
X113.105Y-109.295
X135.965Y-71.195
X135.965Y-73.735
X135.965Y-76.275
X135.965Y-78.815
X135.965Y-81.355
X135.965Y-83.895
X135.965Y-86.435
X135.965Y-88.975
X135.965Y-91.515
X135.965Y-94.055
X135.965Y-96.595
X135.965Y-99.135
X135.965Y-101.675
X135.965Y-104.215
X135.965Y-106.755
X135.965Y-109.295
X135.965Y-111.835
X135.965Y-114.375
X135.965Y-116.915
X135.965Y-119.455
T2
X138.938Y-63.754
X138.938Y-66.294
X139.497Y-85.242
X139.497Y-87.782
X142.24Y-63.754
X142.24Y-66.294
X145.542Y-63.754
X145.542Y-66.294
X148.844Y-63.754
X148.844Y-66.294
T3
X139.548Y-81.432
X139.954Y-110.236
X140.716Y-91.694
X140.716Y-94.234
X140.716Y-96.774
X140.716Y-99.314
X140.716Y-101.854
X140.716Y-104.394
X140.97Y-71.628
X140.97Y-74.168
X140.97Y-76.708
X142.088Y-81.432
X142.494Y-110.236
X143.383Y-86.258
X145.034Y-110.236
X145.923Y-86.258
X147.066Y-90.678
X147.066Y-93.218
X147.066Y-95.758
X147.066Y-98.298
X147.066Y-100.838
X147.066Y-103.378
X147.066Y-105.918
X147.574Y-110.236
X148.336Y-69.85
X148.336Y-72.39
X148.336Y-74.93
X148.336Y-77.47
X148.336Y-80.01
X148.463Y-86.258
T4
X141.732Y-119.888
X144.272Y-119.888
X146.812Y-119.888
T0
M30
