G04 #@! TF.GenerationSoftware,KiCad,Pcbnew,(5.1.8-0-10_14)*
G04 #@! TF.CreationDate,2021-01-25T13:15:20+01:00*
G04 #@! TF.ProjectId,GpsRouteTracker,47707352-6f75-4746-9554-7261636b6572,2.0.0*
G04 #@! TF.SameCoordinates,Original*
G04 #@! TF.FileFunction,Legend,Bot*
G04 #@! TF.FilePolarity,Positive*
%FSLAX46Y46*%
G04 Gerber Fmt 4.6, Leading zero omitted, Abs format (unit mm)*
G04 Created by KiCad (PCBNEW (5.1.8-0-10_14)) date 2021-01-25 13:15:20*
%MOMM*%
%LPD*%
G01*
G04 APERTURE LIST*
%ADD10C,0.250000*%
%ADD11C,0.300000*%
G04 APERTURE END LIST*
D10*
X122335261Y-118465380D02*
X122001928Y-119465380D01*
X121668595Y-118465380D01*
X120954309Y-119417761D02*
X121049547Y-119465380D01*
X121240023Y-119465380D01*
X121335261Y-119417761D01*
X121382880Y-119322523D01*
X121382880Y-118941571D01*
X121335261Y-118846333D01*
X121240023Y-118798714D01*
X121049547Y-118798714D01*
X120954309Y-118846333D01*
X120906690Y-118941571D01*
X120906690Y-119036809D01*
X121382880Y-119132047D01*
X120478119Y-119465380D02*
X120478119Y-118798714D01*
X120478119Y-118989190D02*
X120430500Y-118893952D01*
X120382880Y-118846333D01*
X120287642Y-118798714D01*
X120192404Y-118798714D01*
X119906690Y-119417761D02*
X119811452Y-119465380D01*
X119620976Y-119465380D01*
X119525738Y-119417761D01*
X119478119Y-119322523D01*
X119478119Y-119274904D01*
X119525738Y-119179666D01*
X119620976Y-119132047D01*
X119763833Y-119132047D01*
X119859071Y-119084428D01*
X119906690Y-118989190D01*
X119906690Y-118941571D01*
X119859071Y-118846333D01*
X119763833Y-118798714D01*
X119620976Y-118798714D01*
X119525738Y-118846333D01*
X119049547Y-119465380D02*
X119049547Y-118798714D01*
X119049547Y-118465380D02*
X119097166Y-118513000D01*
X119049547Y-118560619D01*
X119001928Y-118513000D01*
X119049547Y-118465380D01*
X119049547Y-118560619D01*
X118430500Y-119465380D02*
X118525738Y-119417761D01*
X118573357Y-119370142D01*
X118620976Y-119274904D01*
X118620976Y-118989190D01*
X118573357Y-118893952D01*
X118525738Y-118846333D01*
X118430500Y-118798714D01*
X118287642Y-118798714D01*
X118192404Y-118846333D01*
X118144785Y-118893952D01*
X118097166Y-118989190D01*
X118097166Y-119274904D01*
X118144785Y-119370142D01*
X118192404Y-119417761D01*
X118287642Y-119465380D01*
X118430500Y-119465380D01*
X117668595Y-118798714D02*
X117668595Y-119465380D01*
X117668595Y-118893952D02*
X117620976Y-118846333D01*
X117525738Y-118798714D01*
X117382880Y-118798714D01*
X117287642Y-118846333D01*
X117240023Y-118941571D01*
X117240023Y-119465380D01*
X116049547Y-118560619D02*
X116001928Y-118513000D01*
X115906690Y-118465380D01*
X115668595Y-118465380D01*
X115573357Y-118513000D01*
X115525738Y-118560619D01*
X115478119Y-118655857D01*
X115478119Y-118751095D01*
X115525738Y-118893952D01*
X116097166Y-119465380D01*
X115478119Y-119465380D01*
X115049547Y-119370142D02*
X115001928Y-119417761D01*
X115049547Y-119465380D01*
X115097166Y-119417761D01*
X115049547Y-119370142D01*
X115049547Y-119465380D01*
X114382880Y-118465380D02*
X114287642Y-118465380D01*
X114192404Y-118513000D01*
X114144785Y-118560619D01*
X114097166Y-118655857D01*
X114049547Y-118846333D01*
X114049547Y-119084428D01*
X114097166Y-119274904D01*
X114144785Y-119370142D01*
X114192404Y-119417761D01*
X114287642Y-119465380D01*
X114382880Y-119465380D01*
X114478119Y-119417761D01*
X114525738Y-119370142D01*
X114573357Y-119274904D01*
X114620976Y-119084428D01*
X114620976Y-118846333D01*
X114573357Y-118655857D01*
X114525738Y-118560619D01*
X114478119Y-118513000D01*
X114382880Y-118465380D01*
X113620976Y-119370142D02*
X113573357Y-119417761D01*
X113620976Y-119465380D01*
X113668595Y-119417761D01*
X113620976Y-119370142D01*
X113620976Y-119465380D01*
X112620976Y-119465380D02*
X113192404Y-119465380D01*
X112906690Y-119465380D02*
X112906690Y-118465380D01*
X113001928Y-118608238D01*
X113097166Y-118703476D01*
X113192404Y-118751095D01*
X120573357Y-120215380D02*
X120478119Y-120215380D01*
X120382880Y-120263000D01*
X120335261Y-120310619D01*
X120287642Y-120405857D01*
X120240023Y-120596333D01*
X120240023Y-120834428D01*
X120287642Y-121024904D01*
X120335261Y-121120142D01*
X120382880Y-121167761D01*
X120478119Y-121215380D01*
X120573357Y-121215380D01*
X120668595Y-121167761D01*
X120716214Y-121120142D01*
X120763833Y-121024904D01*
X120811452Y-120834428D01*
X120811452Y-120596333D01*
X120763833Y-120405857D01*
X120716214Y-120310619D01*
X120668595Y-120263000D01*
X120573357Y-120215380D01*
X119668595Y-120643952D02*
X119763833Y-120596333D01*
X119811452Y-120548714D01*
X119859071Y-120453476D01*
X119859071Y-120405857D01*
X119811452Y-120310619D01*
X119763833Y-120263000D01*
X119668595Y-120215380D01*
X119478119Y-120215380D01*
X119382880Y-120263000D01*
X119335261Y-120310619D01*
X119287642Y-120405857D01*
X119287642Y-120453476D01*
X119335261Y-120548714D01*
X119382880Y-120596333D01*
X119478119Y-120643952D01*
X119668595Y-120643952D01*
X119763833Y-120691571D01*
X119811452Y-120739190D01*
X119859071Y-120834428D01*
X119859071Y-121024904D01*
X119811452Y-121120142D01*
X119763833Y-121167761D01*
X119668595Y-121215380D01*
X119478119Y-121215380D01*
X119382880Y-121167761D01*
X119335261Y-121120142D01*
X119287642Y-121024904D01*
X119287642Y-120834428D01*
X119335261Y-120739190D01*
X119382880Y-120691571D01*
X119478119Y-120643952D01*
X118859071Y-121120142D02*
X118811452Y-121167761D01*
X118859071Y-121215380D01*
X118906690Y-121167761D01*
X118859071Y-121120142D01*
X118859071Y-121215380D01*
X118192404Y-120215380D02*
X118097166Y-120215380D01*
X118001928Y-120263000D01*
X117954309Y-120310619D01*
X117906690Y-120405857D01*
X117859071Y-120596333D01*
X117859071Y-120834428D01*
X117906690Y-121024904D01*
X117954309Y-121120142D01*
X118001928Y-121167761D01*
X118097166Y-121215380D01*
X118192404Y-121215380D01*
X118287642Y-121167761D01*
X118335261Y-121120142D01*
X118382880Y-121024904D01*
X118430500Y-120834428D01*
X118430500Y-120596333D01*
X118382880Y-120405857D01*
X118335261Y-120310619D01*
X118287642Y-120263000D01*
X118192404Y-120215380D01*
X116906690Y-121215380D02*
X117478119Y-121215380D01*
X117192404Y-121215380D02*
X117192404Y-120215380D01*
X117287642Y-120358238D01*
X117382880Y-120453476D01*
X117478119Y-120501095D01*
X116478119Y-121120142D02*
X116430500Y-121167761D01*
X116478119Y-121215380D01*
X116525738Y-121167761D01*
X116478119Y-121120142D01*
X116478119Y-121215380D01*
X116049547Y-120310619D02*
X116001928Y-120263000D01*
X115906690Y-120215380D01*
X115668595Y-120215380D01*
X115573357Y-120263000D01*
X115525738Y-120310619D01*
X115478119Y-120405857D01*
X115478119Y-120501095D01*
X115525738Y-120643952D01*
X116097166Y-121215380D01*
X115478119Y-121215380D01*
X114859071Y-120215380D02*
X114763833Y-120215380D01*
X114668595Y-120263000D01*
X114620976Y-120310619D01*
X114573357Y-120405857D01*
X114525738Y-120596333D01*
X114525738Y-120834428D01*
X114573357Y-121024904D01*
X114620976Y-121120142D01*
X114668595Y-121167761D01*
X114763833Y-121215380D01*
X114859071Y-121215380D01*
X114954309Y-121167761D01*
X115001928Y-121120142D01*
X115049547Y-121024904D01*
X115097166Y-120834428D01*
X115097166Y-120596333D01*
X115049547Y-120405857D01*
X115001928Y-120310619D01*
X114954309Y-120263000D01*
X114859071Y-120215380D01*
X114144785Y-120310619D02*
X114097166Y-120263000D01*
X114001928Y-120215380D01*
X113763833Y-120215380D01*
X113668595Y-120263000D01*
X113620976Y-120310619D01*
X113573357Y-120405857D01*
X113573357Y-120501095D01*
X113620976Y-120643952D01*
X114192404Y-121215380D01*
X113573357Y-121215380D01*
X112620976Y-121215380D02*
X113192404Y-121215380D01*
X112906690Y-121215380D02*
X112906690Y-120215380D01*
X113001928Y-120358238D01*
X113097166Y-120453476D01*
X113192404Y-120501095D01*
D11*
X129786357Y-116090000D02*
X129920285Y-116018571D01*
X130134571Y-116018571D01*
X130357785Y-116090000D01*
X130518500Y-116232857D01*
X130607785Y-116375714D01*
X130714928Y-116661428D01*
X130741714Y-116875714D01*
X130706000Y-117161428D01*
X130652428Y-117304285D01*
X130527428Y-117447142D01*
X130322071Y-117518571D01*
X130179214Y-117518571D01*
X129956000Y-117447142D01*
X129875642Y-117375714D01*
X129813142Y-116875714D01*
X130098857Y-116875714D01*
X129125642Y-116518571D02*
X129313142Y-118018571D01*
X129134571Y-116590000D02*
X128982785Y-116518571D01*
X128697071Y-116518571D01*
X128563142Y-116590000D01*
X128500642Y-116661428D01*
X128447071Y-116804285D01*
X128500642Y-117232857D01*
X128589928Y-117375714D01*
X128670285Y-117447142D01*
X128822071Y-117518571D01*
X129107785Y-117518571D01*
X129241714Y-117447142D01*
X127956000Y-117447142D02*
X127822071Y-117518571D01*
X127536357Y-117518571D01*
X127384571Y-117447142D01*
X127295285Y-117304285D01*
X127286357Y-117232857D01*
X127339928Y-117090000D01*
X127473857Y-117018571D01*
X127688142Y-117018571D01*
X127822071Y-116947142D01*
X127875642Y-116804285D01*
X127866714Y-116732857D01*
X127777428Y-116590000D01*
X127625642Y-116518571D01*
X127411357Y-116518571D01*
X127277428Y-116590000D01*
X125822071Y-117518571D02*
X126232785Y-116804285D01*
X126679214Y-117518571D02*
X126491714Y-116018571D01*
X125920285Y-116018571D01*
X125786357Y-116090000D01*
X125723857Y-116161428D01*
X125670285Y-116304285D01*
X125697071Y-116518571D01*
X125786357Y-116661428D01*
X125866714Y-116732857D01*
X126018500Y-116804285D01*
X126589928Y-116804285D01*
X124964928Y-117518571D02*
X125098857Y-117447142D01*
X125161357Y-117375714D01*
X125214928Y-117232857D01*
X125161357Y-116804285D01*
X125072071Y-116661428D01*
X124991714Y-116590000D01*
X124839928Y-116518571D01*
X124625642Y-116518571D01*
X124491714Y-116590000D01*
X124429214Y-116661428D01*
X124375642Y-116804285D01*
X124429214Y-117232857D01*
X124518500Y-117375714D01*
X124598857Y-117447142D01*
X124750642Y-117518571D01*
X124964928Y-117518571D01*
X123054214Y-116518571D02*
X123179214Y-117518571D01*
X123697071Y-116518571D02*
X123795285Y-117304285D01*
X123741714Y-117447142D01*
X123607785Y-117518571D01*
X123393500Y-117518571D01*
X123241714Y-117447142D01*
X123161357Y-117375714D01*
X122554214Y-116518571D02*
X121982785Y-116518571D01*
X122277428Y-116018571D02*
X122438142Y-117304285D01*
X122384571Y-117447142D01*
X122250642Y-117518571D01*
X122107785Y-117518571D01*
X121027428Y-117447142D02*
X121179214Y-117518571D01*
X121464928Y-117518571D01*
X121598857Y-117447142D01*
X121652428Y-117304285D01*
X121581000Y-116732857D01*
X121491714Y-116590000D01*
X121339928Y-116518571D01*
X121054214Y-116518571D01*
X120920285Y-116590000D01*
X120866714Y-116732857D01*
X120884571Y-116875714D01*
X121616714Y-117018571D01*
X120348857Y-116018571D02*
X119491714Y-116018571D01*
X120107785Y-117518571D02*
X119920285Y-116018571D01*
X119179214Y-117518571D02*
X119054214Y-116518571D01*
X119089928Y-116804285D02*
X119000642Y-116661428D01*
X118920285Y-116590000D01*
X118768500Y-116518571D01*
X118625642Y-116518571D01*
X117607785Y-117518571D02*
X117509571Y-116732857D01*
X117563142Y-116590000D01*
X117697071Y-116518571D01*
X117982785Y-116518571D01*
X118134571Y-116590000D01*
X117598857Y-117447142D02*
X117750642Y-117518571D01*
X118107785Y-117518571D01*
X118241714Y-117447142D01*
X118295285Y-117304285D01*
X118277428Y-117161428D01*
X118188142Y-117018571D01*
X118036357Y-116947142D01*
X117679214Y-116947142D01*
X117527428Y-116875714D01*
X116241714Y-117447142D02*
X116393500Y-117518571D01*
X116679214Y-117518571D01*
X116813142Y-117447142D01*
X116875642Y-117375714D01*
X116929214Y-117232857D01*
X116875642Y-116804285D01*
X116786357Y-116661428D01*
X116706000Y-116590000D01*
X116554214Y-116518571D01*
X116268500Y-116518571D01*
X116134571Y-116590000D01*
X115607785Y-117518571D02*
X115420285Y-116018571D01*
X115393500Y-116947142D02*
X115036357Y-117518571D01*
X114911357Y-116518571D02*
X115554214Y-117090000D01*
X113813142Y-117447142D02*
X113964928Y-117518571D01*
X114250642Y-117518571D01*
X114384571Y-117447142D01*
X114438142Y-117304285D01*
X114366714Y-116732857D01*
X114277428Y-116590000D01*
X114125642Y-116518571D01*
X113839928Y-116518571D01*
X113706000Y-116590000D01*
X113652428Y-116732857D01*
X113670285Y-116875714D01*
X114402428Y-117018571D01*
X113107785Y-117518571D02*
X112982785Y-116518571D01*
X113018500Y-116804285D02*
X112929214Y-116661428D01*
X112848857Y-116590000D01*
X112697071Y-116518571D01*
X112554214Y-116518571D01*
M02*
