G04 #@! TF.GenerationSoftware,KiCad,Pcbnew,(5.1.8-0-10_14)*
G04 #@! TF.CreationDate,2021-01-25T13:15:20+01:00*
G04 #@! TF.ProjectId,GpsRouteTracker,47707352-6f75-4746-9554-7261636b6572,2.0.0*
G04 #@! TF.SameCoordinates,Original*
G04 #@! TF.FileFunction,Copper,L2,Bot*
G04 #@! TF.FilePolarity,Positive*
%FSLAX46Y46*%
G04 Gerber Fmt 4.6, Leading zero omitted, Abs format (unit mm)*
G04 Created by KiCad (PCBNEW (5.1.8-0-10_14)) date 2021-01-25 13:15:20*
%MOMM*%
%LPD*%
G01*
G04 APERTURE LIST*
G04 #@! TA.AperFunction,ComponentPad*
%ADD10O,1.600000X1.600000*%
G04 #@! TD*
G04 #@! TA.AperFunction,ComponentPad*
%ADD11C,1.600000*%
G04 #@! TD*
G04 #@! TA.AperFunction,ComponentPad*
%ADD12O,2.268000X1.524000*%
G04 #@! TD*
G04 #@! TA.AperFunction,ComponentPad*
%ADD13R,1.700000X1.700000*%
G04 #@! TD*
G04 #@! TA.AperFunction,ComponentPad*
%ADD14O,1.700000X1.700000*%
G04 #@! TD*
G04 #@! TA.AperFunction,ComponentPad*
%ADD15R,1.905000X2.000000*%
G04 #@! TD*
G04 #@! TA.AperFunction,ComponentPad*
%ADD16O,1.905000X2.000000*%
G04 #@! TD*
G04 #@! TA.AperFunction,ComponentPad*
%ADD17C,1.800000*%
G04 #@! TD*
G04 #@! TA.AperFunction,ComponentPad*
%ADD18R,1.800000X1.800000*%
G04 #@! TD*
G04 #@! TA.AperFunction,Conductor*
%ADD19C,0.250000*%
G04 #@! TD*
G04 #@! TA.AperFunction,Conductor*
%ADD20C,0.254000*%
G04 #@! TD*
G04 #@! TA.AperFunction,Conductor*
%ADD21C,0.100000*%
G04 #@! TD*
G04 APERTURE END LIST*
D10*
X145542000Y-66294000D03*
D11*
X145542000Y-63754000D03*
D12*
X113105001Y-71195001D03*
X113105001Y-73735001D03*
X113105001Y-76275001D03*
X113105001Y-78815001D03*
X113105001Y-81355001D03*
X113105001Y-83895001D03*
X113105001Y-86435001D03*
X113105001Y-88975001D03*
X113105001Y-91515001D03*
X113105001Y-94055001D03*
X113105001Y-96595001D03*
X113105001Y-99135001D03*
X113105001Y-101675001D03*
X113105001Y-104215001D03*
X113105001Y-106755001D03*
X113105001Y-109295001D03*
X135965001Y-71195001D03*
X135965001Y-73735001D03*
X135965001Y-76275001D03*
X135965001Y-78815001D03*
X135965001Y-81355001D03*
X135965001Y-83895001D03*
X135965001Y-86435001D03*
X135965001Y-88975001D03*
X135965001Y-91515001D03*
X135965001Y-94055001D03*
X135965001Y-96595001D03*
X135965001Y-99135001D03*
X135965001Y-101675001D03*
X135965001Y-104215001D03*
X135965001Y-106755001D03*
X135965001Y-109295001D03*
X135965001Y-111835001D03*
X135965001Y-114375001D03*
X135965001Y-116915001D03*
X135965001Y-119455001D03*
D11*
X138938000Y-63754000D03*
D10*
X138938000Y-66294000D03*
D13*
X140716000Y-91694000D03*
D14*
X140716000Y-94234000D03*
X140716000Y-96774000D03*
X140716000Y-99314000D03*
X140716000Y-101854000D03*
X140716000Y-104394000D03*
D13*
X147066000Y-105918000D03*
D14*
X147066000Y-103378000D03*
X147066000Y-100838000D03*
X147066000Y-98298000D03*
X147066000Y-95758000D03*
X147066000Y-93218000D03*
X147066000Y-90678000D03*
D11*
X142240000Y-63754000D03*
D10*
X142240000Y-66294000D03*
X139496800Y-87782400D03*
D11*
X139496800Y-85242400D03*
D13*
X143383000Y-86258400D03*
D14*
X145923000Y-86258400D03*
X148463000Y-86258400D03*
D13*
X139954000Y-110236000D03*
D14*
X142494000Y-110236000D03*
X145034000Y-110236000D03*
X147574000Y-110236000D03*
D15*
X146812000Y-119888000D03*
D16*
X144272000Y-119888000D03*
X141732000Y-119888000D03*
D13*
X148336000Y-69850000D03*
D14*
X148336000Y-72390000D03*
X148336000Y-74930000D03*
X148336000Y-77470000D03*
X148336000Y-80010000D03*
D11*
X148844000Y-63754000D03*
D10*
X148844000Y-66294000D03*
D17*
X140970000Y-76708000D03*
X140970000Y-74168000D03*
D18*
X140970000Y-71628000D03*
D13*
X142087600Y-81432400D03*
D14*
X139547600Y-81432400D03*
D19*
X137424011Y-84975991D02*
X135965001Y-86435001D01*
X136787255Y-82807991D02*
X137424011Y-83444747D01*
X137424011Y-83444747D02*
X137424011Y-84975991D01*
X135508727Y-82807991D02*
X136787255Y-82807991D01*
X134505991Y-81805255D02*
X135508727Y-82807991D01*
X135965001Y-71195001D02*
X134505991Y-72654011D01*
X134505991Y-72654011D02*
X134505991Y-81805255D01*
X135965001Y-86435001D02*
X135965001Y-88975001D01*
X130885001Y-109295001D02*
X135965001Y-114375001D01*
X113105001Y-109295001D02*
X130885001Y-109295001D01*
X144107001Y-84442401D02*
X145923000Y-86258400D01*
X140296799Y-84442401D02*
X144107001Y-84442401D01*
X139496800Y-85242400D02*
X140296799Y-84442401D01*
X112976802Y-106883200D02*
X113105001Y-106755001D01*
X111638375Y-105252225D02*
X111639666Y-106788266D01*
X111639666Y-106788266D02*
X111734600Y-106883200D01*
X111645991Y-104665255D02*
X111683800Y-104703064D01*
X111683800Y-105206802D02*
X111638375Y-105252225D01*
X137874020Y-70558346D02*
X136973655Y-69657981D01*
X111683800Y-104703064D02*
X111683800Y-105206802D01*
X140970000Y-76708000D02*
X137874020Y-73612020D01*
X111774219Y-69657981D02*
X111645991Y-69786211D01*
X111734600Y-106883200D02*
X112976802Y-106883200D01*
X137874020Y-73612020D02*
X137874020Y-70558346D01*
X111645991Y-69786211D02*
X111645991Y-104665255D01*
X136973655Y-69657981D02*
X111774219Y-69657981D01*
X141553001Y-106755001D02*
X135965001Y-106755001D01*
X145034000Y-110236000D02*
X141553001Y-106755001D01*
X135142747Y-107842011D02*
X134505991Y-107205255D01*
X134505991Y-105674011D02*
X135965001Y-104215001D01*
X134505991Y-107205255D02*
X134505991Y-105674011D01*
X140100011Y-107842011D02*
X135142747Y-107842011D01*
X142494000Y-110236000D02*
X140100011Y-107842011D01*
X114192011Y-70107991D02*
X113105001Y-71195001D01*
X136787255Y-70107991D02*
X114192011Y-70107991D01*
X137424011Y-70744747D02*
X136787255Y-70107991D01*
X137424011Y-77099011D02*
X137424011Y-70744747D01*
X138371799Y-86657399D02*
X139496800Y-87782400D01*
X138371799Y-78046799D02*
X138371799Y-86657399D01*
X137424011Y-77099011D02*
X138371799Y-78046799D01*
X146939000Y-87782400D02*
X148463000Y-86258400D01*
X139496800Y-87782400D02*
X146939000Y-87782400D01*
X147204630Y-72390000D02*
X148336000Y-72390000D01*
X142240000Y-67425370D02*
X147204630Y-72390000D01*
X142240000Y-66294000D02*
X142240000Y-67425370D01*
X142195001Y-71329001D02*
X148336000Y-77470000D01*
X142195001Y-69551001D02*
X142195001Y-71329001D01*
X138938000Y-66294000D02*
X142195001Y-69551001D01*
X149511001Y-78834999D02*
X148336000Y-80010000D01*
X149511001Y-74365999D02*
X149511001Y-78834999D01*
X149098000Y-73952998D02*
X149511001Y-74365999D01*
X149098000Y-73367002D02*
X149098000Y-73952998D01*
X149511001Y-72954001D02*
X149098000Y-73367002D01*
X149511001Y-70960001D02*
X149511001Y-72954001D01*
X149643999Y-70827003D02*
X149511001Y-70960001D01*
X149643999Y-67093999D02*
X149643999Y-70827003D01*
X148844000Y-66294000D02*
X149643999Y-67093999D01*
X140283001Y-96595001D02*
X140716000Y-97028000D01*
X140537001Y-96595001D02*
X140716000Y-96774000D01*
X135965001Y-96595001D02*
X140537001Y-96595001D01*
X142240000Y-98298000D02*
X140716000Y-96774000D01*
X147066000Y-98298000D02*
X142240000Y-98298000D01*
X129432011Y-97682011D02*
X113105001Y-81355001D01*
X136787255Y-97682011D02*
X129432011Y-97682011D01*
X139784243Y-100678999D02*
X136787255Y-97682011D01*
X144366999Y-100678999D02*
X139784243Y-100678999D01*
X147066000Y-103378000D02*
X144366999Y-100678999D01*
X140970000Y-71628000D02*
X140970000Y-72354998D01*
D20*
X146894790Y-77103592D02*
X146851000Y-77323740D01*
X146851000Y-77616260D01*
X146908068Y-77903158D01*
X147020010Y-78173411D01*
X147182525Y-78416632D01*
X147389368Y-78623475D01*
X147563760Y-78740000D01*
X147389368Y-78856525D01*
X147182525Y-79063368D01*
X147020010Y-79306589D01*
X146908068Y-79576842D01*
X146851000Y-79863740D01*
X146851000Y-80156260D01*
X146908068Y-80443158D01*
X147020010Y-80713411D01*
X147182525Y-80956632D01*
X147389368Y-81163475D01*
X147632589Y-81325990D01*
X147902842Y-81437932D01*
X148189740Y-81495000D01*
X148482260Y-81495000D01*
X148769158Y-81437932D01*
X149039411Y-81325990D01*
X149282632Y-81163475D01*
X149489475Y-80956632D01*
X149651990Y-80713411D01*
X149763932Y-80443158D01*
X149821000Y-80156260D01*
X149821000Y-79863740D01*
X149777210Y-79643592D01*
X149962000Y-79458802D01*
X149962001Y-121768000D01*
X111962246Y-121768000D01*
X111952745Y-110461881D01*
X111953114Y-110462184D01*
X112195806Y-110591905D01*
X112459141Y-110671787D01*
X112664376Y-110692001D01*
X113545626Y-110692001D01*
X113750861Y-110671787D01*
X114014196Y-110591905D01*
X114256888Y-110462184D01*
X114469609Y-110287609D01*
X114644184Y-110074888D01*
X114654814Y-110055001D01*
X130570200Y-110055001D01*
X134315919Y-113800721D01*
X134296097Y-113837806D01*
X134216215Y-114101141D01*
X134189242Y-114375001D01*
X134216215Y-114648861D01*
X134296097Y-114912196D01*
X134425818Y-115154888D01*
X134600393Y-115367609D01*
X134813114Y-115542184D01*
X135005472Y-115645001D01*
X134813114Y-115747818D01*
X134600393Y-115922393D01*
X134425818Y-116135114D01*
X134296097Y-116377806D01*
X134216215Y-116641141D01*
X134189242Y-116915001D01*
X134216215Y-117188861D01*
X134296097Y-117452196D01*
X134425818Y-117694888D01*
X134600393Y-117907609D01*
X134813114Y-118082184D01*
X135005472Y-118185001D01*
X134813114Y-118287818D01*
X134600393Y-118462393D01*
X134425818Y-118675114D01*
X134296097Y-118917806D01*
X134216215Y-119181141D01*
X134189242Y-119455001D01*
X134216215Y-119728861D01*
X134296097Y-119992196D01*
X134425818Y-120234888D01*
X134600393Y-120447609D01*
X134813114Y-120622184D01*
X135055806Y-120751905D01*
X135319141Y-120831787D01*
X135524376Y-120852001D01*
X136405626Y-120852001D01*
X136610861Y-120831787D01*
X136874196Y-120751905D01*
X137116888Y-120622184D01*
X137329609Y-120447609D01*
X137504184Y-120234888D01*
X137633905Y-119992196D01*
X137703578Y-119762514D01*
X140144500Y-119762514D01*
X140144500Y-120013485D01*
X140167470Y-120246703D01*
X140258245Y-120545948D01*
X140405655Y-120821734D01*
X140604037Y-121063463D01*
X140845765Y-121261845D01*
X141121551Y-121409255D01*
X141420796Y-121500030D01*
X141732000Y-121530681D01*
X142043203Y-121500030D01*
X142342448Y-121409255D01*
X142618234Y-121261845D01*
X142859963Y-121063463D01*
X143007163Y-120884101D01*
X143162563Y-121069315D01*
X143405077Y-121263969D01*
X143680906Y-121407571D01*
X143899020Y-121478563D01*
X144145000Y-121358594D01*
X144145000Y-120015000D01*
X144125000Y-120015000D01*
X144125000Y-119761000D01*
X144145000Y-119761000D01*
X144145000Y-118417406D01*
X144399000Y-118417406D01*
X144399000Y-119761000D01*
X144419000Y-119761000D01*
X144419000Y-120015000D01*
X144399000Y-120015000D01*
X144399000Y-121358594D01*
X144644980Y-121478563D01*
X144863094Y-121407571D01*
X145138923Y-121263969D01*
X145279941Y-121150781D01*
X145328963Y-121242494D01*
X145408315Y-121339185D01*
X145505006Y-121418537D01*
X145615320Y-121477502D01*
X145735018Y-121513812D01*
X145859500Y-121526072D01*
X147764500Y-121526072D01*
X147888982Y-121513812D01*
X148008680Y-121477502D01*
X148118994Y-121418537D01*
X148215685Y-121339185D01*
X148295037Y-121242494D01*
X148354002Y-121132180D01*
X148390312Y-121012482D01*
X148402572Y-120888000D01*
X148402572Y-118888000D01*
X148390312Y-118763518D01*
X148354002Y-118643820D01*
X148295037Y-118533506D01*
X148215685Y-118436815D01*
X148118994Y-118357463D01*
X148008680Y-118298498D01*
X147888982Y-118262188D01*
X147764500Y-118249928D01*
X145859500Y-118249928D01*
X145735018Y-118262188D01*
X145615320Y-118298498D01*
X145505006Y-118357463D01*
X145408315Y-118436815D01*
X145328963Y-118533506D01*
X145279941Y-118625219D01*
X145138923Y-118512031D01*
X144863094Y-118368429D01*
X144644980Y-118297437D01*
X144399000Y-118417406D01*
X144145000Y-118417406D01*
X143899020Y-118297437D01*
X143680906Y-118368429D01*
X143405077Y-118512031D01*
X143162563Y-118706685D01*
X143007162Y-118891900D01*
X142859963Y-118712537D01*
X142618235Y-118514155D01*
X142342449Y-118366745D01*
X142043204Y-118275970D01*
X141732000Y-118245319D01*
X141420797Y-118275970D01*
X141121552Y-118366745D01*
X140845766Y-118514155D01*
X140604037Y-118712537D01*
X140405655Y-118954265D01*
X140258245Y-119230051D01*
X140167470Y-119529296D01*
X140144500Y-119762514D01*
X137703578Y-119762514D01*
X137713787Y-119728861D01*
X137740760Y-119455001D01*
X137713787Y-119181141D01*
X137633905Y-118917806D01*
X137504184Y-118675114D01*
X137329609Y-118462393D01*
X137116888Y-118287818D01*
X136924530Y-118185001D01*
X137116888Y-118082184D01*
X137329609Y-117907609D01*
X137504184Y-117694888D01*
X137633905Y-117452196D01*
X137713787Y-117188861D01*
X137740760Y-116915001D01*
X137713787Y-116641141D01*
X137633905Y-116377806D01*
X137504184Y-116135114D01*
X137329609Y-115922393D01*
X137116888Y-115747818D01*
X136924530Y-115645001D01*
X137116888Y-115542184D01*
X137329609Y-115367609D01*
X137504184Y-115154888D01*
X137633905Y-114912196D01*
X137713787Y-114648861D01*
X137740760Y-114375001D01*
X137736556Y-114332317D01*
X138447600Y-114332317D01*
X138447600Y-114674083D01*
X138514275Y-115009281D01*
X138645063Y-115325031D01*
X138834937Y-115609198D01*
X139076602Y-115850863D01*
X139360769Y-116040737D01*
X139676519Y-116171525D01*
X140011717Y-116238200D01*
X140353483Y-116238200D01*
X140688681Y-116171525D01*
X141004431Y-116040737D01*
X141288598Y-115850863D01*
X141530263Y-115609198D01*
X141720137Y-115325031D01*
X141850925Y-115009281D01*
X141917600Y-114674083D01*
X141917600Y-114332317D01*
X141850925Y-113997119D01*
X141720137Y-113681369D01*
X141530263Y-113397202D01*
X141288598Y-113155537D01*
X141004431Y-112965663D01*
X140688681Y-112834875D01*
X140353483Y-112768200D01*
X140011717Y-112768200D01*
X139676519Y-112834875D01*
X139360769Y-112965663D01*
X139076602Y-113155537D01*
X138834937Y-113397202D01*
X138645063Y-113681369D01*
X138514275Y-113997119D01*
X138447600Y-114332317D01*
X137736556Y-114332317D01*
X137713787Y-114101141D01*
X137633905Y-113837806D01*
X137504184Y-113595114D01*
X137329609Y-113382393D01*
X137116888Y-113207818D01*
X136924530Y-113105001D01*
X137116888Y-113002184D01*
X137329609Y-112827609D01*
X137504184Y-112614888D01*
X137633905Y-112372196D01*
X137713787Y-112108861D01*
X137740760Y-111835001D01*
X137713787Y-111561141D01*
X137633905Y-111297806D01*
X137504184Y-111055114D01*
X137329609Y-110842393D01*
X137116888Y-110667818D01*
X136924530Y-110565001D01*
X137116888Y-110462184D01*
X137329609Y-110287609D01*
X137504184Y-110074888D01*
X137633905Y-109832196D01*
X137713787Y-109568861D01*
X137740760Y-109295001D01*
X137713787Y-109021141D01*
X137633905Y-108757806D01*
X137550631Y-108602011D01*
X139785210Y-108602011D01*
X139931127Y-108747928D01*
X139104000Y-108747928D01*
X138979518Y-108760188D01*
X138859820Y-108796498D01*
X138749506Y-108855463D01*
X138652815Y-108934815D01*
X138573463Y-109031506D01*
X138514498Y-109141820D01*
X138478188Y-109261518D01*
X138465928Y-109386000D01*
X138465928Y-111086000D01*
X138478188Y-111210482D01*
X138514498Y-111330180D01*
X138573463Y-111440494D01*
X138652815Y-111537185D01*
X138749506Y-111616537D01*
X138859820Y-111675502D01*
X138979518Y-111711812D01*
X139104000Y-111724072D01*
X140804000Y-111724072D01*
X140928482Y-111711812D01*
X141048180Y-111675502D01*
X141158494Y-111616537D01*
X141255185Y-111537185D01*
X141334537Y-111440494D01*
X141393502Y-111330180D01*
X141415513Y-111257620D01*
X141547368Y-111389475D01*
X141790589Y-111551990D01*
X142060842Y-111663932D01*
X142347740Y-111721000D01*
X142640260Y-111721000D01*
X142927158Y-111663932D01*
X143197411Y-111551990D01*
X143440632Y-111389475D01*
X143647475Y-111182632D01*
X143764000Y-111008240D01*
X143880525Y-111182632D01*
X144087368Y-111389475D01*
X144330589Y-111551990D01*
X144600842Y-111663932D01*
X144887740Y-111721000D01*
X145180260Y-111721000D01*
X145467158Y-111663932D01*
X145737411Y-111551990D01*
X145980632Y-111389475D01*
X146187475Y-111182632D01*
X146309195Y-111000466D01*
X146378822Y-111117355D01*
X146573731Y-111333588D01*
X146807080Y-111507641D01*
X147069901Y-111632825D01*
X147217110Y-111677476D01*
X147447000Y-111556155D01*
X147447000Y-110363000D01*
X147701000Y-110363000D01*
X147701000Y-111556155D01*
X147930890Y-111677476D01*
X148078099Y-111632825D01*
X148340920Y-111507641D01*
X148574269Y-111333588D01*
X148769178Y-111117355D01*
X148918157Y-110867252D01*
X149015481Y-110592891D01*
X148894814Y-110363000D01*
X147701000Y-110363000D01*
X147447000Y-110363000D01*
X147427000Y-110363000D01*
X147427000Y-110109000D01*
X147447000Y-110109000D01*
X147447000Y-108915845D01*
X147701000Y-108915845D01*
X147701000Y-110109000D01*
X148894814Y-110109000D01*
X149015481Y-109879109D01*
X148918157Y-109604748D01*
X148769178Y-109354645D01*
X148574269Y-109138412D01*
X148340920Y-108964359D01*
X148078099Y-108839175D01*
X147930890Y-108794524D01*
X147701000Y-108915845D01*
X147447000Y-108915845D01*
X147217110Y-108794524D01*
X147069901Y-108839175D01*
X146807080Y-108964359D01*
X146573731Y-109138412D01*
X146378822Y-109354645D01*
X146309195Y-109471534D01*
X146187475Y-109289368D01*
X145980632Y-109082525D01*
X145737411Y-108920010D01*
X145467158Y-108808068D01*
X145180260Y-108751000D01*
X144887740Y-108751000D01*
X144667592Y-108794790D01*
X142116805Y-106244004D01*
X142093002Y-106215000D01*
X141977277Y-106120027D01*
X141845248Y-106049455D01*
X141701987Y-106005998D01*
X141590334Y-105995001D01*
X141590323Y-105995001D01*
X141553001Y-105991325D01*
X141515679Y-105995001D01*
X137514814Y-105995001D01*
X137504184Y-105975114D01*
X137329609Y-105762393D01*
X137116888Y-105587818D01*
X136924530Y-105485001D01*
X137116888Y-105382184D01*
X137329609Y-105207609D01*
X137504184Y-104994888D01*
X137633905Y-104752196D01*
X137634301Y-104750890D01*
X139274524Y-104750890D01*
X139319175Y-104898099D01*
X139444359Y-105160920D01*
X139618412Y-105394269D01*
X139834645Y-105589178D01*
X140084748Y-105738157D01*
X140359109Y-105835481D01*
X140589000Y-105714814D01*
X140589000Y-104521000D01*
X140843000Y-104521000D01*
X140843000Y-105714814D01*
X141072891Y-105835481D01*
X141347252Y-105738157D01*
X141597355Y-105589178D01*
X141813588Y-105394269D01*
X141987641Y-105160920D01*
X142112825Y-104898099D01*
X142157476Y-104750890D01*
X142036155Y-104521000D01*
X140843000Y-104521000D01*
X140589000Y-104521000D01*
X139395845Y-104521000D01*
X139274524Y-104750890D01*
X137634301Y-104750890D01*
X137713787Y-104488861D01*
X137740760Y-104215001D01*
X137713787Y-103941141D01*
X137633905Y-103677806D01*
X137504184Y-103435114D01*
X137329609Y-103222393D01*
X137116888Y-103047818D01*
X136924530Y-102945001D01*
X137116888Y-102842184D01*
X137329609Y-102667609D01*
X137504184Y-102454888D01*
X137633905Y-102212196D01*
X137713787Y-101948861D01*
X137740760Y-101675001D01*
X137713787Y-101401141D01*
X137633905Y-101137806D01*
X137504184Y-100895114D01*
X137329609Y-100682393D01*
X137116888Y-100507818D01*
X136924530Y-100405001D01*
X137116888Y-100302184D01*
X137329609Y-100127609D01*
X137504184Y-99914888D01*
X137633905Y-99672196D01*
X137649902Y-99619460D01*
X139220443Y-101190001D01*
X139244242Y-101219000D01*
X139273240Y-101242798D01*
X139339344Y-101297049D01*
X139288068Y-101420842D01*
X139231000Y-101707740D01*
X139231000Y-102000260D01*
X139288068Y-102287158D01*
X139400010Y-102557411D01*
X139562525Y-102800632D01*
X139769368Y-103007475D01*
X139951534Y-103129195D01*
X139834645Y-103198822D01*
X139618412Y-103393731D01*
X139444359Y-103627080D01*
X139319175Y-103889901D01*
X139274524Y-104037110D01*
X139395845Y-104267000D01*
X140589000Y-104267000D01*
X140589000Y-104247000D01*
X140843000Y-104247000D01*
X140843000Y-104267000D01*
X142036155Y-104267000D01*
X142157476Y-104037110D01*
X142112825Y-103889901D01*
X141987641Y-103627080D01*
X141813588Y-103393731D01*
X141597355Y-103198822D01*
X141480466Y-103129195D01*
X141662632Y-103007475D01*
X141869475Y-102800632D01*
X142031990Y-102557411D01*
X142143932Y-102287158D01*
X142201000Y-102000260D01*
X142201000Y-101707740D01*
X142147544Y-101438999D01*
X144052198Y-101438999D01*
X145624790Y-103011592D01*
X145581000Y-103231740D01*
X145581000Y-103524260D01*
X145638068Y-103811158D01*
X145750010Y-104081411D01*
X145912525Y-104324632D01*
X146044380Y-104456487D01*
X145971820Y-104478498D01*
X145861506Y-104537463D01*
X145764815Y-104616815D01*
X145685463Y-104713506D01*
X145626498Y-104823820D01*
X145590188Y-104943518D01*
X145577928Y-105068000D01*
X145577928Y-106768000D01*
X145590188Y-106892482D01*
X145626498Y-107012180D01*
X145685463Y-107122494D01*
X145764815Y-107219185D01*
X145861506Y-107298537D01*
X145971820Y-107357502D01*
X146091518Y-107393812D01*
X146216000Y-107406072D01*
X147916000Y-107406072D01*
X148040482Y-107393812D01*
X148160180Y-107357502D01*
X148270494Y-107298537D01*
X148367185Y-107219185D01*
X148446537Y-107122494D01*
X148505502Y-107012180D01*
X148541812Y-106892482D01*
X148554072Y-106768000D01*
X148554072Y-105068000D01*
X148541812Y-104943518D01*
X148505502Y-104823820D01*
X148446537Y-104713506D01*
X148367185Y-104616815D01*
X148270494Y-104537463D01*
X148160180Y-104478498D01*
X148087620Y-104456487D01*
X148219475Y-104324632D01*
X148381990Y-104081411D01*
X148493932Y-103811158D01*
X148551000Y-103524260D01*
X148551000Y-103231740D01*
X148493932Y-102944842D01*
X148381990Y-102674589D01*
X148219475Y-102431368D01*
X148012632Y-102224525D01*
X147838240Y-102108000D01*
X148012632Y-101991475D01*
X148219475Y-101784632D01*
X148381990Y-101541411D01*
X148493932Y-101271158D01*
X148551000Y-100984260D01*
X148551000Y-100691740D01*
X148493932Y-100404842D01*
X148381990Y-100134589D01*
X148219475Y-99891368D01*
X148012632Y-99684525D01*
X147838240Y-99568000D01*
X148012632Y-99451475D01*
X148219475Y-99244632D01*
X148381990Y-99001411D01*
X148493932Y-98731158D01*
X148551000Y-98444260D01*
X148551000Y-98151740D01*
X148493932Y-97864842D01*
X148381990Y-97594589D01*
X148219475Y-97351368D01*
X148012632Y-97144525D01*
X147838240Y-97028000D01*
X148012632Y-96911475D01*
X148219475Y-96704632D01*
X148381990Y-96461411D01*
X148493932Y-96191158D01*
X148551000Y-95904260D01*
X148551000Y-95611740D01*
X148493932Y-95324842D01*
X148381990Y-95054589D01*
X148219475Y-94811368D01*
X148012632Y-94604525D01*
X147838240Y-94488000D01*
X148012632Y-94371475D01*
X148219475Y-94164632D01*
X148381990Y-93921411D01*
X148493932Y-93651158D01*
X148551000Y-93364260D01*
X148551000Y-93071740D01*
X148493932Y-92784842D01*
X148381990Y-92514589D01*
X148219475Y-92271368D01*
X148012632Y-92064525D01*
X147830466Y-91942805D01*
X147947355Y-91873178D01*
X148163588Y-91678269D01*
X148337641Y-91444920D01*
X148462825Y-91182099D01*
X148507476Y-91034890D01*
X148386155Y-90805000D01*
X147193000Y-90805000D01*
X147193000Y-90825000D01*
X146939000Y-90825000D01*
X146939000Y-90805000D01*
X145745845Y-90805000D01*
X145624524Y-91034890D01*
X145669175Y-91182099D01*
X145794359Y-91444920D01*
X145968412Y-91678269D01*
X146184645Y-91873178D01*
X146301534Y-91942805D01*
X146119368Y-92064525D01*
X145912525Y-92271368D01*
X145750010Y-92514589D01*
X145638068Y-92784842D01*
X145581000Y-93071740D01*
X145581000Y-93364260D01*
X145638068Y-93651158D01*
X145750010Y-93921411D01*
X145912525Y-94164632D01*
X146119368Y-94371475D01*
X146293760Y-94488000D01*
X146119368Y-94604525D01*
X145912525Y-94811368D01*
X145750010Y-95054589D01*
X145638068Y-95324842D01*
X145581000Y-95611740D01*
X145581000Y-95904260D01*
X145638068Y-96191158D01*
X145750010Y-96461411D01*
X145912525Y-96704632D01*
X146119368Y-96911475D01*
X146293760Y-97028000D01*
X146119368Y-97144525D01*
X145912525Y-97351368D01*
X145787822Y-97538000D01*
X142554803Y-97538000D01*
X142157210Y-97140407D01*
X142201000Y-96920260D01*
X142201000Y-96627740D01*
X142143932Y-96340842D01*
X142031990Y-96070589D01*
X141869475Y-95827368D01*
X141662632Y-95620525D01*
X141488240Y-95504000D01*
X141662632Y-95387475D01*
X141869475Y-95180632D01*
X142031990Y-94937411D01*
X142143932Y-94667158D01*
X142201000Y-94380260D01*
X142201000Y-94087740D01*
X142143932Y-93800842D01*
X142031990Y-93530589D01*
X141869475Y-93287368D01*
X141737620Y-93155513D01*
X141810180Y-93133502D01*
X141920494Y-93074537D01*
X142017185Y-92995185D01*
X142096537Y-92898494D01*
X142155502Y-92788180D01*
X142191812Y-92668482D01*
X142204072Y-92544000D01*
X142204072Y-90844000D01*
X142191812Y-90719518D01*
X142155502Y-90599820D01*
X142096537Y-90489506D01*
X142017185Y-90392815D01*
X141929812Y-90321110D01*
X145624524Y-90321110D01*
X145745845Y-90551000D01*
X146939000Y-90551000D01*
X146939000Y-89357186D01*
X147193000Y-89357186D01*
X147193000Y-90551000D01*
X148386155Y-90551000D01*
X148507476Y-90321110D01*
X148462825Y-90173901D01*
X148337641Y-89911080D01*
X148163588Y-89677731D01*
X147947355Y-89482822D01*
X147697252Y-89333843D01*
X147422891Y-89236519D01*
X147193000Y-89357186D01*
X146939000Y-89357186D01*
X146709109Y-89236519D01*
X146434748Y-89333843D01*
X146184645Y-89482822D01*
X145968412Y-89677731D01*
X145794359Y-89911080D01*
X145669175Y-90173901D01*
X145624524Y-90321110D01*
X141929812Y-90321110D01*
X141920494Y-90313463D01*
X141810180Y-90254498D01*
X141690482Y-90218188D01*
X141566000Y-90205928D01*
X139866000Y-90205928D01*
X139741518Y-90218188D01*
X139621820Y-90254498D01*
X139511506Y-90313463D01*
X139414815Y-90392815D01*
X139335463Y-90489506D01*
X139276498Y-90599820D01*
X139240188Y-90719518D01*
X139227928Y-90844000D01*
X139227928Y-92544000D01*
X139240188Y-92668482D01*
X139276498Y-92788180D01*
X139335463Y-92898494D01*
X139414815Y-92995185D01*
X139511506Y-93074537D01*
X139621820Y-93133502D01*
X139694380Y-93155513D01*
X139562525Y-93287368D01*
X139400010Y-93530589D01*
X139288068Y-93800842D01*
X139231000Y-94087740D01*
X139231000Y-94380260D01*
X139288068Y-94667158D01*
X139400010Y-94937411D01*
X139562525Y-95180632D01*
X139769368Y-95387475D01*
X139943760Y-95504000D01*
X139769368Y-95620525D01*
X139562525Y-95827368D01*
X139557425Y-95835001D01*
X137514814Y-95835001D01*
X137504184Y-95815114D01*
X137329609Y-95602393D01*
X137116888Y-95427818D01*
X136924530Y-95325001D01*
X137116888Y-95222184D01*
X137329609Y-95047609D01*
X137504184Y-94834888D01*
X137633905Y-94592196D01*
X137713787Y-94328861D01*
X137740760Y-94055001D01*
X137713787Y-93781141D01*
X137633905Y-93517806D01*
X137504184Y-93275114D01*
X137329609Y-93062393D01*
X137116888Y-92887818D01*
X136924530Y-92785001D01*
X137116888Y-92682184D01*
X137329609Y-92507609D01*
X137504184Y-92294888D01*
X137633905Y-92052196D01*
X137713787Y-91788861D01*
X137740760Y-91515001D01*
X137713787Y-91241141D01*
X137633905Y-90977806D01*
X137504184Y-90735114D01*
X137329609Y-90522393D01*
X137116888Y-90347818D01*
X136924530Y-90245001D01*
X137116888Y-90142184D01*
X137329609Y-89967609D01*
X137504184Y-89754888D01*
X137633905Y-89512196D01*
X137713787Y-89248861D01*
X137740760Y-88975001D01*
X137713787Y-88701141D01*
X137633905Y-88437806D01*
X137504184Y-88195114D01*
X137329609Y-87982393D01*
X137116888Y-87807818D01*
X136924530Y-87705001D01*
X137116888Y-87602184D01*
X137329609Y-87427609D01*
X137504184Y-87214888D01*
X137633905Y-86972196D01*
X137653500Y-86907601D01*
X137666253Y-86949645D01*
X137736825Y-87081675D01*
X137785141Y-87140547D01*
X137831799Y-87197400D01*
X137860797Y-87221198D01*
X138098112Y-87458513D01*
X138061800Y-87641065D01*
X138061800Y-87923735D01*
X138116947Y-88200974D01*
X138225120Y-88462127D01*
X138382163Y-88697159D01*
X138582041Y-88897037D01*
X138817073Y-89054080D01*
X139078226Y-89162253D01*
X139355465Y-89217400D01*
X139638135Y-89217400D01*
X139915374Y-89162253D01*
X140176527Y-89054080D01*
X140411559Y-88897037D01*
X140611437Y-88697159D01*
X140714843Y-88542400D01*
X146901678Y-88542400D01*
X146939000Y-88546076D01*
X146976322Y-88542400D01*
X146976333Y-88542400D01*
X147087986Y-88531403D01*
X147231247Y-88487946D01*
X147363276Y-88417374D01*
X147479001Y-88322401D01*
X147502803Y-88293398D01*
X148096592Y-87699610D01*
X148316740Y-87743400D01*
X148609260Y-87743400D01*
X148896158Y-87686332D01*
X149166411Y-87574390D01*
X149409632Y-87411875D01*
X149616475Y-87205032D01*
X149778990Y-86961811D01*
X149890932Y-86691558D01*
X149948000Y-86404660D01*
X149948000Y-86112140D01*
X149890932Y-85825242D01*
X149778990Y-85554989D01*
X149616475Y-85311768D01*
X149409632Y-85104925D01*
X149166411Y-84942410D01*
X148896158Y-84830468D01*
X148609260Y-84773400D01*
X148316740Y-84773400D01*
X148029842Y-84830468D01*
X147759589Y-84942410D01*
X147516368Y-85104925D01*
X147309525Y-85311768D01*
X147193000Y-85486160D01*
X147076475Y-85311768D01*
X146869632Y-85104925D01*
X146626411Y-84942410D01*
X146356158Y-84830468D01*
X146069260Y-84773400D01*
X145776740Y-84773400D01*
X145556592Y-84817190D01*
X144670804Y-83931403D01*
X144647002Y-83902400D01*
X144531277Y-83807427D01*
X144399248Y-83736855D01*
X144255987Y-83693398D01*
X144144334Y-83682401D01*
X144144323Y-83682401D01*
X144107001Y-83678725D01*
X144069679Y-83682401D01*
X140334121Y-83682401D01*
X140296798Y-83678725D01*
X140259475Y-83682401D01*
X140259466Y-83682401D01*
X140147813Y-83693398D01*
X140004552Y-83736855D01*
X139872523Y-83807427D01*
X139872521Y-83807428D01*
X139872522Y-83807428D01*
X139826822Y-83844933D01*
X139638135Y-83807400D01*
X139355465Y-83807400D01*
X139131799Y-83851891D01*
X139131799Y-82863785D01*
X139401340Y-82917400D01*
X139693860Y-82917400D01*
X139980758Y-82860332D01*
X140251011Y-82748390D01*
X140494232Y-82585875D01*
X140626087Y-82454020D01*
X140648098Y-82526580D01*
X140707063Y-82636894D01*
X140786415Y-82733585D01*
X140883106Y-82812937D01*
X140993420Y-82871902D01*
X141113118Y-82908212D01*
X141237600Y-82920472D01*
X142937600Y-82920472D01*
X143062082Y-82908212D01*
X143181780Y-82871902D01*
X143292094Y-82812937D01*
X143388785Y-82733585D01*
X143468137Y-82636894D01*
X143527102Y-82526580D01*
X143563412Y-82406882D01*
X143575672Y-82282400D01*
X143575672Y-80582400D01*
X143563412Y-80457918D01*
X143527102Y-80338220D01*
X143468137Y-80227906D01*
X143388785Y-80131215D01*
X143292094Y-80051863D01*
X143181780Y-79992898D01*
X143062082Y-79956588D01*
X142937600Y-79944328D01*
X141237600Y-79944328D01*
X141113118Y-79956588D01*
X140993420Y-79992898D01*
X140883106Y-80051863D01*
X140786415Y-80131215D01*
X140707063Y-80227906D01*
X140648098Y-80338220D01*
X140626087Y-80410780D01*
X140494232Y-80278925D01*
X140251011Y-80116410D01*
X139980758Y-80004468D01*
X139693860Y-79947400D01*
X139401340Y-79947400D01*
X139131799Y-80001015D01*
X139131799Y-78084124D01*
X139135475Y-78046799D01*
X139131799Y-78009474D01*
X139131799Y-78009466D01*
X139120802Y-77897813D01*
X139077345Y-77754552D01*
X139006773Y-77622523D01*
X138911800Y-77506798D01*
X138882803Y-77483001D01*
X138184011Y-76784210D01*
X138184011Y-74996812D01*
X139486269Y-76299070D01*
X139435000Y-76556816D01*
X139435000Y-76859184D01*
X139493989Y-77155743D01*
X139609701Y-77435095D01*
X139777688Y-77686505D01*
X139991495Y-77900312D01*
X140242905Y-78068299D01*
X140522257Y-78184011D01*
X140818816Y-78243000D01*
X141121184Y-78243000D01*
X141417743Y-78184011D01*
X141697095Y-78068299D01*
X141948505Y-77900312D01*
X142162312Y-77686505D01*
X142330299Y-77435095D01*
X142446011Y-77155743D01*
X142505000Y-76859184D01*
X142505000Y-76556816D01*
X142446011Y-76260257D01*
X142330299Y-75980905D01*
X142162312Y-75729495D01*
X141948505Y-75515688D01*
X141832237Y-75438000D01*
X141948505Y-75360312D01*
X142162312Y-75146505D01*
X142330299Y-74895095D01*
X142446011Y-74615743D01*
X142505000Y-74319184D01*
X142505000Y-74016816D01*
X142446011Y-73720257D01*
X142330299Y-73440905D01*
X142162312Y-73189495D01*
X142095873Y-73123056D01*
X142114180Y-73117502D01*
X142224494Y-73058537D01*
X142321185Y-72979185D01*
X142400537Y-72882494D01*
X142459502Y-72772180D01*
X142483679Y-72692480D01*
X146894790Y-77103592D01*
G04 #@! TA.AperFunction,Conductor*
D21*
G36*
X146894790Y-77103592D02*
G01*
X146851000Y-77323740D01*
X146851000Y-77616260D01*
X146908068Y-77903158D01*
X147020010Y-78173411D01*
X147182525Y-78416632D01*
X147389368Y-78623475D01*
X147563760Y-78740000D01*
X147389368Y-78856525D01*
X147182525Y-79063368D01*
X147020010Y-79306589D01*
X146908068Y-79576842D01*
X146851000Y-79863740D01*
X146851000Y-80156260D01*
X146908068Y-80443158D01*
X147020010Y-80713411D01*
X147182525Y-80956632D01*
X147389368Y-81163475D01*
X147632589Y-81325990D01*
X147902842Y-81437932D01*
X148189740Y-81495000D01*
X148482260Y-81495000D01*
X148769158Y-81437932D01*
X149039411Y-81325990D01*
X149282632Y-81163475D01*
X149489475Y-80956632D01*
X149651990Y-80713411D01*
X149763932Y-80443158D01*
X149821000Y-80156260D01*
X149821000Y-79863740D01*
X149777210Y-79643592D01*
X149962000Y-79458802D01*
X149962001Y-121768000D01*
X111962246Y-121768000D01*
X111952745Y-110461881D01*
X111953114Y-110462184D01*
X112195806Y-110591905D01*
X112459141Y-110671787D01*
X112664376Y-110692001D01*
X113545626Y-110692001D01*
X113750861Y-110671787D01*
X114014196Y-110591905D01*
X114256888Y-110462184D01*
X114469609Y-110287609D01*
X114644184Y-110074888D01*
X114654814Y-110055001D01*
X130570200Y-110055001D01*
X134315919Y-113800721D01*
X134296097Y-113837806D01*
X134216215Y-114101141D01*
X134189242Y-114375001D01*
X134216215Y-114648861D01*
X134296097Y-114912196D01*
X134425818Y-115154888D01*
X134600393Y-115367609D01*
X134813114Y-115542184D01*
X135005472Y-115645001D01*
X134813114Y-115747818D01*
X134600393Y-115922393D01*
X134425818Y-116135114D01*
X134296097Y-116377806D01*
X134216215Y-116641141D01*
X134189242Y-116915001D01*
X134216215Y-117188861D01*
X134296097Y-117452196D01*
X134425818Y-117694888D01*
X134600393Y-117907609D01*
X134813114Y-118082184D01*
X135005472Y-118185001D01*
X134813114Y-118287818D01*
X134600393Y-118462393D01*
X134425818Y-118675114D01*
X134296097Y-118917806D01*
X134216215Y-119181141D01*
X134189242Y-119455001D01*
X134216215Y-119728861D01*
X134296097Y-119992196D01*
X134425818Y-120234888D01*
X134600393Y-120447609D01*
X134813114Y-120622184D01*
X135055806Y-120751905D01*
X135319141Y-120831787D01*
X135524376Y-120852001D01*
X136405626Y-120852001D01*
X136610861Y-120831787D01*
X136874196Y-120751905D01*
X137116888Y-120622184D01*
X137329609Y-120447609D01*
X137504184Y-120234888D01*
X137633905Y-119992196D01*
X137703578Y-119762514D01*
X140144500Y-119762514D01*
X140144500Y-120013485D01*
X140167470Y-120246703D01*
X140258245Y-120545948D01*
X140405655Y-120821734D01*
X140604037Y-121063463D01*
X140845765Y-121261845D01*
X141121551Y-121409255D01*
X141420796Y-121500030D01*
X141732000Y-121530681D01*
X142043203Y-121500030D01*
X142342448Y-121409255D01*
X142618234Y-121261845D01*
X142859963Y-121063463D01*
X143007163Y-120884101D01*
X143162563Y-121069315D01*
X143405077Y-121263969D01*
X143680906Y-121407571D01*
X143899020Y-121478563D01*
X144145000Y-121358594D01*
X144145000Y-120015000D01*
X144125000Y-120015000D01*
X144125000Y-119761000D01*
X144145000Y-119761000D01*
X144145000Y-118417406D01*
X144399000Y-118417406D01*
X144399000Y-119761000D01*
X144419000Y-119761000D01*
X144419000Y-120015000D01*
X144399000Y-120015000D01*
X144399000Y-121358594D01*
X144644980Y-121478563D01*
X144863094Y-121407571D01*
X145138923Y-121263969D01*
X145279941Y-121150781D01*
X145328963Y-121242494D01*
X145408315Y-121339185D01*
X145505006Y-121418537D01*
X145615320Y-121477502D01*
X145735018Y-121513812D01*
X145859500Y-121526072D01*
X147764500Y-121526072D01*
X147888982Y-121513812D01*
X148008680Y-121477502D01*
X148118994Y-121418537D01*
X148215685Y-121339185D01*
X148295037Y-121242494D01*
X148354002Y-121132180D01*
X148390312Y-121012482D01*
X148402572Y-120888000D01*
X148402572Y-118888000D01*
X148390312Y-118763518D01*
X148354002Y-118643820D01*
X148295037Y-118533506D01*
X148215685Y-118436815D01*
X148118994Y-118357463D01*
X148008680Y-118298498D01*
X147888982Y-118262188D01*
X147764500Y-118249928D01*
X145859500Y-118249928D01*
X145735018Y-118262188D01*
X145615320Y-118298498D01*
X145505006Y-118357463D01*
X145408315Y-118436815D01*
X145328963Y-118533506D01*
X145279941Y-118625219D01*
X145138923Y-118512031D01*
X144863094Y-118368429D01*
X144644980Y-118297437D01*
X144399000Y-118417406D01*
X144145000Y-118417406D01*
X143899020Y-118297437D01*
X143680906Y-118368429D01*
X143405077Y-118512031D01*
X143162563Y-118706685D01*
X143007162Y-118891900D01*
X142859963Y-118712537D01*
X142618235Y-118514155D01*
X142342449Y-118366745D01*
X142043204Y-118275970D01*
X141732000Y-118245319D01*
X141420797Y-118275970D01*
X141121552Y-118366745D01*
X140845766Y-118514155D01*
X140604037Y-118712537D01*
X140405655Y-118954265D01*
X140258245Y-119230051D01*
X140167470Y-119529296D01*
X140144500Y-119762514D01*
X137703578Y-119762514D01*
X137713787Y-119728861D01*
X137740760Y-119455001D01*
X137713787Y-119181141D01*
X137633905Y-118917806D01*
X137504184Y-118675114D01*
X137329609Y-118462393D01*
X137116888Y-118287818D01*
X136924530Y-118185001D01*
X137116888Y-118082184D01*
X137329609Y-117907609D01*
X137504184Y-117694888D01*
X137633905Y-117452196D01*
X137713787Y-117188861D01*
X137740760Y-116915001D01*
X137713787Y-116641141D01*
X137633905Y-116377806D01*
X137504184Y-116135114D01*
X137329609Y-115922393D01*
X137116888Y-115747818D01*
X136924530Y-115645001D01*
X137116888Y-115542184D01*
X137329609Y-115367609D01*
X137504184Y-115154888D01*
X137633905Y-114912196D01*
X137713787Y-114648861D01*
X137740760Y-114375001D01*
X137736556Y-114332317D01*
X138447600Y-114332317D01*
X138447600Y-114674083D01*
X138514275Y-115009281D01*
X138645063Y-115325031D01*
X138834937Y-115609198D01*
X139076602Y-115850863D01*
X139360769Y-116040737D01*
X139676519Y-116171525D01*
X140011717Y-116238200D01*
X140353483Y-116238200D01*
X140688681Y-116171525D01*
X141004431Y-116040737D01*
X141288598Y-115850863D01*
X141530263Y-115609198D01*
X141720137Y-115325031D01*
X141850925Y-115009281D01*
X141917600Y-114674083D01*
X141917600Y-114332317D01*
X141850925Y-113997119D01*
X141720137Y-113681369D01*
X141530263Y-113397202D01*
X141288598Y-113155537D01*
X141004431Y-112965663D01*
X140688681Y-112834875D01*
X140353483Y-112768200D01*
X140011717Y-112768200D01*
X139676519Y-112834875D01*
X139360769Y-112965663D01*
X139076602Y-113155537D01*
X138834937Y-113397202D01*
X138645063Y-113681369D01*
X138514275Y-113997119D01*
X138447600Y-114332317D01*
X137736556Y-114332317D01*
X137713787Y-114101141D01*
X137633905Y-113837806D01*
X137504184Y-113595114D01*
X137329609Y-113382393D01*
X137116888Y-113207818D01*
X136924530Y-113105001D01*
X137116888Y-113002184D01*
X137329609Y-112827609D01*
X137504184Y-112614888D01*
X137633905Y-112372196D01*
X137713787Y-112108861D01*
X137740760Y-111835001D01*
X137713787Y-111561141D01*
X137633905Y-111297806D01*
X137504184Y-111055114D01*
X137329609Y-110842393D01*
X137116888Y-110667818D01*
X136924530Y-110565001D01*
X137116888Y-110462184D01*
X137329609Y-110287609D01*
X137504184Y-110074888D01*
X137633905Y-109832196D01*
X137713787Y-109568861D01*
X137740760Y-109295001D01*
X137713787Y-109021141D01*
X137633905Y-108757806D01*
X137550631Y-108602011D01*
X139785210Y-108602011D01*
X139931127Y-108747928D01*
X139104000Y-108747928D01*
X138979518Y-108760188D01*
X138859820Y-108796498D01*
X138749506Y-108855463D01*
X138652815Y-108934815D01*
X138573463Y-109031506D01*
X138514498Y-109141820D01*
X138478188Y-109261518D01*
X138465928Y-109386000D01*
X138465928Y-111086000D01*
X138478188Y-111210482D01*
X138514498Y-111330180D01*
X138573463Y-111440494D01*
X138652815Y-111537185D01*
X138749506Y-111616537D01*
X138859820Y-111675502D01*
X138979518Y-111711812D01*
X139104000Y-111724072D01*
X140804000Y-111724072D01*
X140928482Y-111711812D01*
X141048180Y-111675502D01*
X141158494Y-111616537D01*
X141255185Y-111537185D01*
X141334537Y-111440494D01*
X141393502Y-111330180D01*
X141415513Y-111257620D01*
X141547368Y-111389475D01*
X141790589Y-111551990D01*
X142060842Y-111663932D01*
X142347740Y-111721000D01*
X142640260Y-111721000D01*
X142927158Y-111663932D01*
X143197411Y-111551990D01*
X143440632Y-111389475D01*
X143647475Y-111182632D01*
X143764000Y-111008240D01*
X143880525Y-111182632D01*
X144087368Y-111389475D01*
X144330589Y-111551990D01*
X144600842Y-111663932D01*
X144887740Y-111721000D01*
X145180260Y-111721000D01*
X145467158Y-111663932D01*
X145737411Y-111551990D01*
X145980632Y-111389475D01*
X146187475Y-111182632D01*
X146309195Y-111000466D01*
X146378822Y-111117355D01*
X146573731Y-111333588D01*
X146807080Y-111507641D01*
X147069901Y-111632825D01*
X147217110Y-111677476D01*
X147447000Y-111556155D01*
X147447000Y-110363000D01*
X147701000Y-110363000D01*
X147701000Y-111556155D01*
X147930890Y-111677476D01*
X148078099Y-111632825D01*
X148340920Y-111507641D01*
X148574269Y-111333588D01*
X148769178Y-111117355D01*
X148918157Y-110867252D01*
X149015481Y-110592891D01*
X148894814Y-110363000D01*
X147701000Y-110363000D01*
X147447000Y-110363000D01*
X147427000Y-110363000D01*
X147427000Y-110109000D01*
X147447000Y-110109000D01*
X147447000Y-108915845D01*
X147701000Y-108915845D01*
X147701000Y-110109000D01*
X148894814Y-110109000D01*
X149015481Y-109879109D01*
X148918157Y-109604748D01*
X148769178Y-109354645D01*
X148574269Y-109138412D01*
X148340920Y-108964359D01*
X148078099Y-108839175D01*
X147930890Y-108794524D01*
X147701000Y-108915845D01*
X147447000Y-108915845D01*
X147217110Y-108794524D01*
X147069901Y-108839175D01*
X146807080Y-108964359D01*
X146573731Y-109138412D01*
X146378822Y-109354645D01*
X146309195Y-109471534D01*
X146187475Y-109289368D01*
X145980632Y-109082525D01*
X145737411Y-108920010D01*
X145467158Y-108808068D01*
X145180260Y-108751000D01*
X144887740Y-108751000D01*
X144667592Y-108794790D01*
X142116805Y-106244004D01*
X142093002Y-106215000D01*
X141977277Y-106120027D01*
X141845248Y-106049455D01*
X141701987Y-106005998D01*
X141590334Y-105995001D01*
X141590323Y-105995001D01*
X141553001Y-105991325D01*
X141515679Y-105995001D01*
X137514814Y-105995001D01*
X137504184Y-105975114D01*
X137329609Y-105762393D01*
X137116888Y-105587818D01*
X136924530Y-105485001D01*
X137116888Y-105382184D01*
X137329609Y-105207609D01*
X137504184Y-104994888D01*
X137633905Y-104752196D01*
X137634301Y-104750890D01*
X139274524Y-104750890D01*
X139319175Y-104898099D01*
X139444359Y-105160920D01*
X139618412Y-105394269D01*
X139834645Y-105589178D01*
X140084748Y-105738157D01*
X140359109Y-105835481D01*
X140589000Y-105714814D01*
X140589000Y-104521000D01*
X140843000Y-104521000D01*
X140843000Y-105714814D01*
X141072891Y-105835481D01*
X141347252Y-105738157D01*
X141597355Y-105589178D01*
X141813588Y-105394269D01*
X141987641Y-105160920D01*
X142112825Y-104898099D01*
X142157476Y-104750890D01*
X142036155Y-104521000D01*
X140843000Y-104521000D01*
X140589000Y-104521000D01*
X139395845Y-104521000D01*
X139274524Y-104750890D01*
X137634301Y-104750890D01*
X137713787Y-104488861D01*
X137740760Y-104215001D01*
X137713787Y-103941141D01*
X137633905Y-103677806D01*
X137504184Y-103435114D01*
X137329609Y-103222393D01*
X137116888Y-103047818D01*
X136924530Y-102945001D01*
X137116888Y-102842184D01*
X137329609Y-102667609D01*
X137504184Y-102454888D01*
X137633905Y-102212196D01*
X137713787Y-101948861D01*
X137740760Y-101675001D01*
X137713787Y-101401141D01*
X137633905Y-101137806D01*
X137504184Y-100895114D01*
X137329609Y-100682393D01*
X137116888Y-100507818D01*
X136924530Y-100405001D01*
X137116888Y-100302184D01*
X137329609Y-100127609D01*
X137504184Y-99914888D01*
X137633905Y-99672196D01*
X137649902Y-99619460D01*
X139220443Y-101190001D01*
X139244242Y-101219000D01*
X139273240Y-101242798D01*
X139339344Y-101297049D01*
X139288068Y-101420842D01*
X139231000Y-101707740D01*
X139231000Y-102000260D01*
X139288068Y-102287158D01*
X139400010Y-102557411D01*
X139562525Y-102800632D01*
X139769368Y-103007475D01*
X139951534Y-103129195D01*
X139834645Y-103198822D01*
X139618412Y-103393731D01*
X139444359Y-103627080D01*
X139319175Y-103889901D01*
X139274524Y-104037110D01*
X139395845Y-104267000D01*
X140589000Y-104267000D01*
X140589000Y-104247000D01*
X140843000Y-104247000D01*
X140843000Y-104267000D01*
X142036155Y-104267000D01*
X142157476Y-104037110D01*
X142112825Y-103889901D01*
X141987641Y-103627080D01*
X141813588Y-103393731D01*
X141597355Y-103198822D01*
X141480466Y-103129195D01*
X141662632Y-103007475D01*
X141869475Y-102800632D01*
X142031990Y-102557411D01*
X142143932Y-102287158D01*
X142201000Y-102000260D01*
X142201000Y-101707740D01*
X142147544Y-101438999D01*
X144052198Y-101438999D01*
X145624790Y-103011592D01*
X145581000Y-103231740D01*
X145581000Y-103524260D01*
X145638068Y-103811158D01*
X145750010Y-104081411D01*
X145912525Y-104324632D01*
X146044380Y-104456487D01*
X145971820Y-104478498D01*
X145861506Y-104537463D01*
X145764815Y-104616815D01*
X145685463Y-104713506D01*
X145626498Y-104823820D01*
X145590188Y-104943518D01*
X145577928Y-105068000D01*
X145577928Y-106768000D01*
X145590188Y-106892482D01*
X145626498Y-107012180D01*
X145685463Y-107122494D01*
X145764815Y-107219185D01*
X145861506Y-107298537D01*
X145971820Y-107357502D01*
X146091518Y-107393812D01*
X146216000Y-107406072D01*
X147916000Y-107406072D01*
X148040482Y-107393812D01*
X148160180Y-107357502D01*
X148270494Y-107298537D01*
X148367185Y-107219185D01*
X148446537Y-107122494D01*
X148505502Y-107012180D01*
X148541812Y-106892482D01*
X148554072Y-106768000D01*
X148554072Y-105068000D01*
X148541812Y-104943518D01*
X148505502Y-104823820D01*
X148446537Y-104713506D01*
X148367185Y-104616815D01*
X148270494Y-104537463D01*
X148160180Y-104478498D01*
X148087620Y-104456487D01*
X148219475Y-104324632D01*
X148381990Y-104081411D01*
X148493932Y-103811158D01*
X148551000Y-103524260D01*
X148551000Y-103231740D01*
X148493932Y-102944842D01*
X148381990Y-102674589D01*
X148219475Y-102431368D01*
X148012632Y-102224525D01*
X147838240Y-102108000D01*
X148012632Y-101991475D01*
X148219475Y-101784632D01*
X148381990Y-101541411D01*
X148493932Y-101271158D01*
X148551000Y-100984260D01*
X148551000Y-100691740D01*
X148493932Y-100404842D01*
X148381990Y-100134589D01*
X148219475Y-99891368D01*
X148012632Y-99684525D01*
X147838240Y-99568000D01*
X148012632Y-99451475D01*
X148219475Y-99244632D01*
X148381990Y-99001411D01*
X148493932Y-98731158D01*
X148551000Y-98444260D01*
X148551000Y-98151740D01*
X148493932Y-97864842D01*
X148381990Y-97594589D01*
X148219475Y-97351368D01*
X148012632Y-97144525D01*
X147838240Y-97028000D01*
X148012632Y-96911475D01*
X148219475Y-96704632D01*
X148381990Y-96461411D01*
X148493932Y-96191158D01*
X148551000Y-95904260D01*
X148551000Y-95611740D01*
X148493932Y-95324842D01*
X148381990Y-95054589D01*
X148219475Y-94811368D01*
X148012632Y-94604525D01*
X147838240Y-94488000D01*
X148012632Y-94371475D01*
X148219475Y-94164632D01*
X148381990Y-93921411D01*
X148493932Y-93651158D01*
X148551000Y-93364260D01*
X148551000Y-93071740D01*
X148493932Y-92784842D01*
X148381990Y-92514589D01*
X148219475Y-92271368D01*
X148012632Y-92064525D01*
X147830466Y-91942805D01*
X147947355Y-91873178D01*
X148163588Y-91678269D01*
X148337641Y-91444920D01*
X148462825Y-91182099D01*
X148507476Y-91034890D01*
X148386155Y-90805000D01*
X147193000Y-90805000D01*
X147193000Y-90825000D01*
X146939000Y-90825000D01*
X146939000Y-90805000D01*
X145745845Y-90805000D01*
X145624524Y-91034890D01*
X145669175Y-91182099D01*
X145794359Y-91444920D01*
X145968412Y-91678269D01*
X146184645Y-91873178D01*
X146301534Y-91942805D01*
X146119368Y-92064525D01*
X145912525Y-92271368D01*
X145750010Y-92514589D01*
X145638068Y-92784842D01*
X145581000Y-93071740D01*
X145581000Y-93364260D01*
X145638068Y-93651158D01*
X145750010Y-93921411D01*
X145912525Y-94164632D01*
X146119368Y-94371475D01*
X146293760Y-94488000D01*
X146119368Y-94604525D01*
X145912525Y-94811368D01*
X145750010Y-95054589D01*
X145638068Y-95324842D01*
X145581000Y-95611740D01*
X145581000Y-95904260D01*
X145638068Y-96191158D01*
X145750010Y-96461411D01*
X145912525Y-96704632D01*
X146119368Y-96911475D01*
X146293760Y-97028000D01*
X146119368Y-97144525D01*
X145912525Y-97351368D01*
X145787822Y-97538000D01*
X142554803Y-97538000D01*
X142157210Y-97140407D01*
X142201000Y-96920260D01*
X142201000Y-96627740D01*
X142143932Y-96340842D01*
X142031990Y-96070589D01*
X141869475Y-95827368D01*
X141662632Y-95620525D01*
X141488240Y-95504000D01*
X141662632Y-95387475D01*
X141869475Y-95180632D01*
X142031990Y-94937411D01*
X142143932Y-94667158D01*
X142201000Y-94380260D01*
X142201000Y-94087740D01*
X142143932Y-93800842D01*
X142031990Y-93530589D01*
X141869475Y-93287368D01*
X141737620Y-93155513D01*
X141810180Y-93133502D01*
X141920494Y-93074537D01*
X142017185Y-92995185D01*
X142096537Y-92898494D01*
X142155502Y-92788180D01*
X142191812Y-92668482D01*
X142204072Y-92544000D01*
X142204072Y-90844000D01*
X142191812Y-90719518D01*
X142155502Y-90599820D01*
X142096537Y-90489506D01*
X142017185Y-90392815D01*
X141929812Y-90321110D01*
X145624524Y-90321110D01*
X145745845Y-90551000D01*
X146939000Y-90551000D01*
X146939000Y-89357186D01*
X147193000Y-89357186D01*
X147193000Y-90551000D01*
X148386155Y-90551000D01*
X148507476Y-90321110D01*
X148462825Y-90173901D01*
X148337641Y-89911080D01*
X148163588Y-89677731D01*
X147947355Y-89482822D01*
X147697252Y-89333843D01*
X147422891Y-89236519D01*
X147193000Y-89357186D01*
X146939000Y-89357186D01*
X146709109Y-89236519D01*
X146434748Y-89333843D01*
X146184645Y-89482822D01*
X145968412Y-89677731D01*
X145794359Y-89911080D01*
X145669175Y-90173901D01*
X145624524Y-90321110D01*
X141929812Y-90321110D01*
X141920494Y-90313463D01*
X141810180Y-90254498D01*
X141690482Y-90218188D01*
X141566000Y-90205928D01*
X139866000Y-90205928D01*
X139741518Y-90218188D01*
X139621820Y-90254498D01*
X139511506Y-90313463D01*
X139414815Y-90392815D01*
X139335463Y-90489506D01*
X139276498Y-90599820D01*
X139240188Y-90719518D01*
X139227928Y-90844000D01*
X139227928Y-92544000D01*
X139240188Y-92668482D01*
X139276498Y-92788180D01*
X139335463Y-92898494D01*
X139414815Y-92995185D01*
X139511506Y-93074537D01*
X139621820Y-93133502D01*
X139694380Y-93155513D01*
X139562525Y-93287368D01*
X139400010Y-93530589D01*
X139288068Y-93800842D01*
X139231000Y-94087740D01*
X139231000Y-94380260D01*
X139288068Y-94667158D01*
X139400010Y-94937411D01*
X139562525Y-95180632D01*
X139769368Y-95387475D01*
X139943760Y-95504000D01*
X139769368Y-95620525D01*
X139562525Y-95827368D01*
X139557425Y-95835001D01*
X137514814Y-95835001D01*
X137504184Y-95815114D01*
X137329609Y-95602393D01*
X137116888Y-95427818D01*
X136924530Y-95325001D01*
X137116888Y-95222184D01*
X137329609Y-95047609D01*
X137504184Y-94834888D01*
X137633905Y-94592196D01*
X137713787Y-94328861D01*
X137740760Y-94055001D01*
X137713787Y-93781141D01*
X137633905Y-93517806D01*
X137504184Y-93275114D01*
X137329609Y-93062393D01*
X137116888Y-92887818D01*
X136924530Y-92785001D01*
X137116888Y-92682184D01*
X137329609Y-92507609D01*
X137504184Y-92294888D01*
X137633905Y-92052196D01*
X137713787Y-91788861D01*
X137740760Y-91515001D01*
X137713787Y-91241141D01*
X137633905Y-90977806D01*
X137504184Y-90735114D01*
X137329609Y-90522393D01*
X137116888Y-90347818D01*
X136924530Y-90245001D01*
X137116888Y-90142184D01*
X137329609Y-89967609D01*
X137504184Y-89754888D01*
X137633905Y-89512196D01*
X137713787Y-89248861D01*
X137740760Y-88975001D01*
X137713787Y-88701141D01*
X137633905Y-88437806D01*
X137504184Y-88195114D01*
X137329609Y-87982393D01*
X137116888Y-87807818D01*
X136924530Y-87705001D01*
X137116888Y-87602184D01*
X137329609Y-87427609D01*
X137504184Y-87214888D01*
X137633905Y-86972196D01*
X137653500Y-86907601D01*
X137666253Y-86949645D01*
X137736825Y-87081675D01*
X137785141Y-87140547D01*
X137831799Y-87197400D01*
X137860797Y-87221198D01*
X138098112Y-87458513D01*
X138061800Y-87641065D01*
X138061800Y-87923735D01*
X138116947Y-88200974D01*
X138225120Y-88462127D01*
X138382163Y-88697159D01*
X138582041Y-88897037D01*
X138817073Y-89054080D01*
X139078226Y-89162253D01*
X139355465Y-89217400D01*
X139638135Y-89217400D01*
X139915374Y-89162253D01*
X140176527Y-89054080D01*
X140411559Y-88897037D01*
X140611437Y-88697159D01*
X140714843Y-88542400D01*
X146901678Y-88542400D01*
X146939000Y-88546076D01*
X146976322Y-88542400D01*
X146976333Y-88542400D01*
X147087986Y-88531403D01*
X147231247Y-88487946D01*
X147363276Y-88417374D01*
X147479001Y-88322401D01*
X147502803Y-88293398D01*
X148096592Y-87699610D01*
X148316740Y-87743400D01*
X148609260Y-87743400D01*
X148896158Y-87686332D01*
X149166411Y-87574390D01*
X149409632Y-87411875D01*
X149616475Y-87205032D01*
X149778990Y-86961811D01*
X149890932Y-86691558D01*
X149948000Y-86404660D01*
X149948000Y-86112140D01*
X149890932Y-85825242D01*
X149778990Y-85554989D01*
X149616475Y-85311768D01*
X149409632Y-85104925D01*
X149166411Y-84942410D01*
X148896158Y-84830468D01*
X148609260Y-84773400D01*
X148316740Y-84773400D01*
X148029842Y-84830468D01*
X147759589Y-84942410D01*
X147516368Y-85104925D01*
X147309525Y-85311768D01*
X147193000Y-85486160D01*
X147076475Y-85311768D01*
X146869632Y-85104925D01*
X146626411Y-84942410D01*
X146356158Y-84830468D01*
X146069260Y-84773400D01*
X145776740Y-84773400D01*
X145556592Y-84817190D01*
X144670804Y-83931403D01*
X144647002Y-83902400D01*
X144531277Y-83807427D01*
X144399248Y-83736855D01*
X144255987Y-83693398D01*
X144144334Y-83682401D01*
X144144323Y-83682401D01*
X144107001Y-83678725D01*
X144069679Y-83682401D01*
X140334121Y-83682401D01*
X140296798Y-83678725D01*
X140259475Y-83682401D01*
X140259466Y-83682401D01*
X140147813Y-83693398D01*
X140004552Y-83736855D01*
X139872523Y-83807427D01*
X139872521Y-83807428D01*
X139872522Y-83807428D01*
X139826822Y-83844933D01*
X139638135Y-83807400D01*
X139355465Y-83807400D01*
X139131799Y-83851891D01*
X139131799Y-82863785D01*
X139401340Y-82917400D01*
X139693860Y-82917400D01*
X139980758Y-82860332D01*
X140251011Y-82748390D01*
X140494232Y-82585875D01*
X140626087Y-82454020D01*
X140648098Y-82526580D01*
X140707063Y-82636894D01*
X140786415Y-82733585D01*
X140883106Y-82812937D01*
X140993420Y-82871902D01*
X141113118Y-82908212D01*
X141237600Y-82920472D01*
X142937600Y-82920472D01*
X143062082Y-82908212D01*
X143181780Y-82871902D01*
X143292094Y-82812937D01*
X143388785Y-82733585D01*
X143468137Y-82636894D01*
X143527102Y-82526580D01*
X143563412Y-82406882D01*
X143575672Y-82282400D01*
X143575672Y-80582400D01*
X143563412Y-80457918D01*
X143527102Y-80338220D01*
X143468137Y-80227906D01*
X143388785Y-80131215D01*
X143292094Y-80051863D01*
X143181780Y-79992898D01*
X143062082Y-79956588D01*
X142937600Y-79944328D01*
X141237600Y-79944328D01*
X141113118Y-79956588D01*
X140993420Y-79992898D01*
X140883106Y-80051863D01*
X140786415Y-80131215D01*
X140707063Y-80227906D01*
X140648098Y-80338220D01*
X140626087Y-80410780D01*
X140494232Y-80278925D01*
X140251011Y-80116410D01*
X139980758Y-80004468D01*
X139693860Y-79947400D01*
X139401340Y-79947400D01*
X139131799Y-80001015D01*
X139131799Y-78084124D01*
X139135475Y-78046799D01*
X139131799Y-78009474D01*
X139131799Y-78009466D01*
X139120802Y-77897813D01*
X139077345Y-77754552D01*
X139006773Y-77622523D01*
X138911800Y-77506798D01*
X138882803Y-77483001D01*
X138184011Y-76784210D01*
X138184011Y-74996812D01*
X139486269Y-76299070D01*
X139435000Y-76556816D01*
X139435000Y-76859184D01*
X139493989Y-77155743D01*
X139609701Y-77435095D01*
X139777688Y-77686505D01*
X139991495Y-77900312D01*
X140242905Y-78068299D01*
X140522257Y-78184011D01*
X140818816Y-78243000D01*
X141121184Y-78243000D01*
X141417743Y-78184011D01*
X141697095Y-78068299D01*
X141948505Y-77900312D01*
X142162312Y-77686505D01*
X142330299Y-77435095D01*
X142446011Y-77155743D01*
X142505000Y-76859184D01*
X142505000Y-76556816D01*
X142446011Y-76260257D01*
X142330299Y-75980905D01*
X142162312Y-75729495D01*
X141948505Y-75515688D01*
X141832237Y-75438000D01*
X141948505Y-75360312D01*
X142162312Y-75146505D01*
X142330299Y-74895095D01*
X142446011Y-74615743D01*
X142505000Y-74319184D01*
X142505000Y-74016816D01*
X142446011Y-73720257D01*
X142330299Y-73440905D01*
X142162312Y-73189495D01*
X142095873Y-73123056D01*
X142114180Y-73117502D01*
X142224494Y-73058537D01*
X142321185Y-72979185D01*
X142400537Y-72882494D01*
X142459502Y-72772180D01*
X142483679Y-72692480D01*
X146894790Y-77103592D01*
G37*
G04 #@! TD.AperFunction*
M02*
