G04 #@! TF.GenerationSoftware,KiCad,Pcbnew,(5.1.8-0-10_14)*
G04 #@! TF.CreationDate,2021-01-25T13:15:20+01:00*
G04 #@! TF.ProjectId,GpsRouteTracker,47707352-6f75-4746-9554-7261636b6572,2.0.0*
G04 #@! TF.SameCoordinates,Original*
G04 #@! TF.FileFunction,Legend,Top*
G04 #@! TF.FilePolarity,Positive*
%FSLAX46Y46*%
G04 Gerber Fmt 4.6, Leading zero omitted, Abs format (unit mm)*
G04 Created by KiCad (PCBNEW (5.1.8-0-10_14)) date 2021-01-25 13:15:20*
%MOMM*%
%LPD*%
G01*
G04 APERTURE LIST*
%ADD10C,0.150000*%
%ADD11C,0.125000*%
%ADD12C,0.120000*%
G04 APERTURE END LIST*
D10*
X138032533Y-79590066D02*
X138032533Y-78890066D01*
X138299200Y-78890066D01*
X138365866Y-78923400D01*
X138399200Y-78956733D01*
X138432533Y-79023400D01*
X138432533Y-79123400D01*
X138399200Y-79190066D01*
X138365866Y-79223400D01*
X138299200Y-79256733D01*
X138032533Y-79256733D01*
X138865866Y-78890066D02*
X138999200Y-78890066D01*
X139065866Y-78923400D01*
X139132533Y-78990066D01*
X139165866Y-79123400D01*
X139165866Y-79356733D01*
X139132533Y-79490066D01*
X139065866Y-79556733D01*
X138999200Y-79590066D01*
X138865866Y-79590066D01*
X138799200Y-79556733D01*
X138732533Y-79490066D01*
X138699200Y-79356733D01*
X138699200Y-79123400D01*
X138732533Y-78990066D01*
X138799200Y-78923400D01*
X138865866Y-78890066D01*
X139399200Y-78890066D02*
X139565866Y-79590066D01*
X139699200Y-79090066D01*
X139832533Y-79590066D01*
X139999200Y-78890066D01*
X140265866Y-79223400D02*
X140499200Y-79223400D01*
X140599200Y-79590066D02*
X140265866Y-79590066D01*
X140265866Y-78890066D01*
X140599200Y-78890066D01*
X141299200Y-79590066D02*
X141065866Y-79256733D01*
X140899200Y-79590066D02*
X140899200Y-78890066D01*
X141165866Y-78890066D01*
X141232533Y-78923400D01*
X141265866Y-78956733D01*
X141299200Y-79023400D01*
X141299200Y-79123400D01*
X141265866Y-79190066D01*
X141232533Y-79223400D01*
X141165866Y-79256733D01*
X140899200Y-79256733D01*
X138892066Y-68641980D02*
X139082542Y-68641980D01*
X139177780Y-68689600D01*
X139273019Y-68784838D01*
X139320638Y-68975314D01*
X139320638Y-69308647D01*
X139273019Y-69499123D01*
X139177780Y-69594361D01*
X139082542Y-69641980D01*
X138892066Y-69641980D01*
X138796828Y-69594361D01*
X138701590Y-69499123D01*
X138653971Y-69308647D01*
X138653971Y-68975314D01*
X138701590Y-68784838D01*
X138796828Y-68689600D01*
X138892066Y-68641980D01*
X139749209Y-69641980D02*
X139749209Y-68641980D01*
X140320638Y-69641980D02*
X139892066Y-69070552D01*
X140320638Y-68641980D02*
X139749209Y-69213409D01*
X140749209Y-69641980D02*
X140749209Y-68641980D01*
D11*
X139161876Y-83436590D02*
X138876161Y-83436590D01*
X139019019Y-83436590D02*
X139019019Y-82936590D01*
X138971400Y-83008019D01*
X138923780Y-83055638D01*
X138876161Y-83079447D01*
X139352352Y-82984209D02*
X139376161Y-82960400D01*
X139423780Y-82936590D01*
X139542828Y-82936590D01*
X139590447Y-82960400D01*
X139614257Y-82984209D01*
X139638066Y-83031828D01*
X139638066Y-83079447D01*
X139614257Y-83150876D01*
X139328542Y-83436590D01*
X139638066Y-83436590D01*
X139780923Y-82936590D02*
X139947590Y-83436590D01*
X140114257Y-82936590D01*
X141681247Y-83011200D02*
X141633628Y-82987390D01*
X141562200Y-82987390D01*
X141490771Y-83011200D01*
X141443152Y-83058819D01*
X141419342Y-83106438D01*
X141395533Y-83201676D01*
X141395533Y-83273104D01*
X141419342Y-83368342D01*
X141443152Y-83415961D01*
X141490771Y-83463580D01*
X141562200Y-83487390D01*
X141609819Y-83487390D01*
X141681247Y-83463580D01*
X141705057Y-83439771D01*
X141705057Y-83273104D01*
X141609819Y-83273104D01*
X141919342Y-83487390D02*
X141919342Y-82987390D01*
X142205057Y-83487390D01*
X142205057Y-82987390D01*
X142443152Y-83487390D02*
X142443152Y-82987390D01*
X142562200Y-82987390D01*
X142633628Y-83011200D01*
X142681247Y-83058819D01*
X142705057Y-83106438D01*
X142728866Y-83201676D01*
X142728866Y-83273104D01*
X142705057Y-83368342D01*
X142681247Y-83415961D01*
X142633628Y-83463580D01*
X142562200Y-83487390D01*
X142443152Y-83487390D01*
X138628476Y-71879590D02*
X138342761Y-71879590D01*
X138485619Y-71879590D02*
X138485619Y-71379590D01*
X138438000Y-71451019D01*
X138390380Y-71498638D01*
X138342761Y-71522447D01*
X138818952Y-71427209D02*
X138842761Y-71403400D01*
X138890380Y-71379590D01*
X139009428Y-71379590D01*
X139057047Y-71403400D01*
X139080857Y-71427209D01*
X139104666Y-71474828D01*
X139104666Y-71522447D01*
X139080857Y-71593876D01*
X138795142Y-71879590D01*
X139104666Y-71879590D01*
X139247523Y-71379590D02*
X139414190Y-71879590D01*
X139580857Y-71379590D01*
X138715761Y-76586590D02*
X138477666Y-76586590D01*
X138453857Y-76824685D01*
X138477666Y-76800876D01*
X138525285Y-76777066D01*
X138644333Y-76777066D01*
X138691952Y-76800876D01*
X138715761Y-76824685D01*
X138739571Y-76872304D01*
X138739571Y-76991352D01*
X138715761Y-77038971D01*
X138691952Y-77062780D01*
X138644333Y-77086590D01*
X138525285Y-77086590D01*
X138477666Y-77062780D01*
X138453857Y-77038971D01*
X138882428Y-76586590D02*
X139049095Y-77086590D01*
X139215761Y-76586590D01*
X138430047Y-73994200D02*
X138382428Y-73970390D01*
X138311000Y-73970390D01*
X138239571Y-73994200D01*
X138191952Y-74041819D01*
X138168142Y-74089438D01*
X138144333Y-74184676D01*
X138144333Y-74256104D01*
X138168142Y-74351342D01*
X138191952Y-74398961D01*
X138239571Y-74446580D01*
X138311000Y-74470390D01*
X138358619Y-74470390D01*
X138430047Y-74446580D01*
X138453857Y-74422771D01*
X138453857Y-74256104D01*
X138358619Y-74256104D01*
X138668142Y-74470390D02*
X138668142Y-73970390D01*
X138953857Y-74470390D01*
X138953857Y-73970390D01*
X139191952Y-74470390D02*
X139191952Y-73970390D01*
X139311000Y-73970390D01*
X139382428Y-73994200D01*
X139430047Y-74041819D01*
X139453857Y-74089438D01*
X139477666Y-74184676D01*
X139477666Y-74256104D01*
X139453857Y-74351342D01*
X139430047Y-74398961D01*
X139382428Y-74446580D01*
X139311000Y-74470390D01*
X139191952Y-74470390D01*
D10*
X123174380Y-105862380D02*
X122698190Y-105862380D01*
X122698190Y-104862380D01*
X123650571Y-105862380D02*
X123555333Y-105814761D01*
X123507714Y-105767142D01*
X123460095Y-105671904D01*
X123460095Y-105386190D01*
X123507714Y-105290952D01*
X123555333Y-105243333D01*
X123650571Y-105195714D01*
X123793428Y-105195714D01*
X123888666Y-105243333D01*
X123936285Y-105290952D01*
X123983904Y-105386190D01*
X123983904Y-105671904D01*
X123936285Y-105767142D01*
X123888666Y-105814761D01*
X123793428Y-105862380D01*
X123650571Y-105862380D01*
X124555333Y-105862380D02*
X124460095Y-105814761D01*
X124412476Y-105719523D01*
X124412476Y-104862380D01*
X124936285Y-105862380D02*
X124936285Y-105195714D01*
X124936285Y-104862380D02*
X124888666Y-104910000D01*
X124936285Y-104957619D01*
X124983904Y-104910000D01*
X124936285Y-104862380D01*
X124936285Y-104957619D01*
X125412476Y-105195714D02*
X125412476Y-105862380D01*
X125412476Y-105290952D02*
X125460095Y-105243333D01*
X125555333Y-105195714D01*
X125698190Y-105195714D01*
X125793428Y-105243333D01*
X125841047Y-105338571D01*
X125841047Y-105862380D01*
X126222000Y-104862380D02*
X126841047Y-104862380D01*
X126507714Y-105243333D01*
X126650571Y-105243333D01*
X126745809Y-105290952D01*
X126793428Y-105338571D01*
X126841047Y-105433809D01*
X126841047Y-105671904D01*
X126793428Y-105767142D01*
X126745809Y-105814761D01*
X126650571Y-105862380D01*
X126364857Y-105862380D01*
X126269619Y-105814761D01*
X126222000Y-105767142D01*
X127222000Y-104957619D02*
X127269619Y-104910000D01*
X127364857Y-104862380D01*
X127602952Y-104862380D01*
X127698190Y-104910000D01*
X127745809Y-104957619D01*
X127793428Y-105052857D01*
X127793428Y-105148095D01*
X127745809Y-105290952D01*
X127174380Y-105862380D01*
X127793428Y-105862380D01*
X146605714Y-113546000D02*
X146510476Y-113498380D01*
X146367619Y-113498380D01*
X146224761Y-113546000D01*
X146129523Y-113641238D01*
X146081904Y-113736476D01*
X146034285Y-113926952D01*
X146034285Y-114069809D01*
X146081904Y-114260285D01*
X146129523Y-114355523D01*
X146224761Y-114450761D01*
X146367619Y-114498380D01*
X146462857Y-114498380D01*
X146605714Y-114450761D01*
X146653333Y-114403142D01*
X146653333Y-114069809D01*
X146462857Y-114069809D01*
X147081904Y-114498380D02*
X147081904Y-113498380D01*
X147462857Y-113498380D01*
X147558095Y-113546000D01*
X147605714Y-113593619D01*
X147653333Y-113688857D01*
X147653333Y-113831714D01*
X147605714Y-113926952D01*
X147558095Y-113974571D01*
X147462857Y-114022190D01*
X147081904Y-114022190D01*
X148034285Y-114450761D02*
X148177142Y-114498380D01*
X148415238Y-114498380D01*
X148510476Y-114450761D01*
X148558095Y-114403142D01*
X148605714Y-114307904D01*
X148605714Y-114212666D01*
X148558095Y-114117428D01*
X148510476Y-114069809D01*
X148415238Y-114022190D01*
X148224761Y-113974571D01*
X148129523Y-113926952D01*
X148081904Y-113879333D01*
X148034285Y-113784095D01*
X148034285Y-113688857D01*
X148081904Y-113593619D01*
X148129523Y-113546000D01*
X148224761Y-113498380D01*
X148462857Y-113498380D01*
X148605714Y-113546000D01*
X139930285Y-107592761D02*
X140073142Y-107640380D01*
X140311238Y-107640380D01*
X140406476Y-107592761D01*
X140454095Y-107545142D01*
X140501714Y-107449904D01*
X140501714Y-107354666D01*
X140454095Y-107259428D01*
X140406476Y-107211809D01*
X140311238Y-107164190D01*
X140120761Y-107116571D01*
X140025523Y-107068952D01*
X139977904Y-107021333D01*
X139930285Y-106926095D01*
X139930285Y-106830857D01*
X139977904Y-106735619D01*
X140025523Y-106688000D01*
X140120761Y-106640380D01*
X140358857Y-106640380D01*
X140501714Y-106688000D01*
X140930285Y-107640380D02*
X140930285Y-106640380D01*
X141168380Y-106640380D01*
X141311238Y-106688000D01*
X141406476Y-106783238D01*
X141454095Y-106878476D01*
X141501714Y-107068952D01*
X141501714Y-107211809D01*
X141454095Y-107402285D01*
X141406476Y-107497523D01*
X141311238Y-107592761D01*
X141168380Y-107640380D01*
X140930285Y-107640380D01*
X144835571Y-77420504D02*
X144883190Y-77277647D01*
X144930809Y-77230028D01*
X145026047Y-77182409D01*
X145168904Y-77182409D01*
X145264142Y-77230028D01*
X145311761Y-77277647D01*
X145359380Y-77372885D01*
X145359380Y-77753838D01*
X144359380Y-77753838D01*
X144359380Y-77420504D01*
X144407000Y-77325266D01*
X144454619Y-77277647D01*
X144549857Y-77230028D01*
X144645095Y-77230028D01*
X144740333Y-77277647D01*
X144787952Y-77325266D01*
X144835571Y-77420504D01*
X144835571Y-77753838D01*
X144692714Y-76325266D02*
X145359380Y-76325266D01*
X144692714Y-76753838D02*
X145216523Y-76753838D01*
X145311761Y-76706219D01*
X145359380Y-76610980D01*
X145359380Y-76468123D01*
X145311761Y-76372885D01*
X145264142Y-76325266D01*
X144692714Y-75991933D02*
X144692714Y-75610980D01*
X144359380Y-75849076D02*
X145216523Y-75849076D01*
X145311761Y-75801457D01*
X145359380Y-75706219D01*
X145359380Y-75610980D01*
X144692714Y-75420504D02*
X144692714Y-75039552D01*
X144359380Y-75277647D02*
X145216523Y-75277647D01*
X145311761Y-75230028D01*
X145359380Y-75134790D01*
X145359380Y-75039552D01*
X145359380Y-74563361D02*
X145311761Y-74658600D01*
X145264142Y-74706219D01*
X145168904Y-74753838D01*
X144883190Y-74753838D01*
X144787952Y-74706219D01*
X144740333Y-74658600D01*
X144692714Y-74563361D01*
X144692714Y-74420504D01*
X144740333Y-74325266D01*
X144787952Y-74277647D01*
X144883190Y-74230028D01*
X145168904Y-74230028D01*
X145264142Y-74277647D01*
X145311761Y-74325266D01*
X145359380Y-74420504D01*
X145359380Y-74563361D01*
X144692714Y-73801457D02*
X145359380Y-73801457D01*
X144787952Y-73801457D02*
X144740333Y-73753838D01*
X144692714Y-73658600D01*
X144692714Y-73515742D01*
X144740333Y-73420504D01*
X144835571Y-73372885D01*
X145359380Y-73372885D01*
X145311761Y-72944314D02*
X145359380Y-72849076D01*
X145359380Y-72658600D01*
X145311761Y-72563361D01*
X145216523Y-72515742D01*
X145168904Y-72515742D01*
X145073666Y-72563361D01*
X145026047Y-72658600D01*
X145026047Y-72801457D01*
X144978428Y-72896695D01*
X144883190Y-72944314D01*
X144835571Y-72944314D01*
X144740333Y-72896695D01*
X144692714Y-72801457D01*
X144692714Y-72658600D01*
X144740333Y-72563361D01*
X146947095Y-83103980D02*
X146375666Y-83103980D01*
X146661380Y-83103980D02*
X146661380Y-82103980D01*
X146566142Y-82246838D01*
X146470904Y-82342076D01*
X146375666Y-82389695D01*
X147280428Y-82103980D02*
X147518523Y-83103980D01*
X147709000Y-82389695D01*
X147899476Y-83103980D01*
X148137571Y-82103980D01*
X148518523Y-83103980D02*
X148518523Y-82437314D01*
X148518523Y-82103980D02*
X148470904Y-82151600D01*
X148518523Y-82199219D01*
X148566142Y-82151600D01*
X148518523Y-82103980D01*
X148518523Y-82199219D01*
X148994714Y-83103980D02*
X148994714Y-82437314D01*
X148994714Y-82627790D02*
X149042333Y-82532552D01*
X149089952Y-82484933D01*
X149185190Y-82437314D01*
X149280428Y-82437314D01*
X149994714Y-83056361D02*
X149899476Y-83103980D01*
X149709000Y-83103980D01*
X149613761Y-83056361D01*
X149566142Y-82961123D01*
X149566142Y-82580171D01*
X149613761Y-82484933D01*
X149709000Y-82437314D01*
X149899476Y-82437314D01*
X149994714Y-82484933D01*
X150042333Y-82580171D01*
X150042333Y-82675409D01*
X149566142Y-82770647D01*
X150153619Y-89911419D02*
X150153619Y-90101895D01*
X150106000Y-90197133D01*
X150010761Y-90292371D01*
X149820285Y-90339990D01*
X149486952Y-90339990D01*
X149296476Y-90292371D01*
X149201238Y-90197133D01*
X149153619Y-90101895D01*
X149153619Y-89911419D01*
X149201238Y-89816180D01*
X149296476Y-89720942D01*
X149486952Y-89673323D01*
X149820285Y-89673323D01*
X150010761Y-89720942D01*
X150106000Y-89816180D01*
X150153619Y-89911419D01*
X149153619Y-91244752D02*
X149153619Y-90768561D01*
X150153619Y-90768561D01*
X149677428Y-91578085D02*
X149677428Y-91911419D01*
X149153619Y-92054276D02*
X149153619Y-91578085D01*
X150153619Y-91578085D01*
X150153619Y-92054276D01*
X149153619Y-92482847D02*
X150153619Y-92482847D01*
X150153619Y-92720942D01*
X150106000Y-92863800D01*
X150010761Y-92959038D01*
X149915523Y-93006657D01*
X149725047Y-93054276D01*
X149582190Y-93054276D01*
X149391714Y-93006657D01*
X149296476Y-92959038D01*
X149201238Y-92863800D01*
X149153619Y-92720942D01*
X149153619Y-92482847D01*
D11*
X143764047Y-92968000D02*
X143716428Y-92944190D01*
X143645000Y-92944190D01*
X143573571Y-92968000D01*
X143525952Y-93015619D01*
X143502142Y-93063238D01*
X143478333Y-93158476D01*
X143478333Y-93229904D01*
X143502142Y-93325142D01*
X143525952Y-93372761D01*
X143573571Y-93420380D01*
X143645000Y-93444190D01*
X143692619Y-93444190D01*
X143764047Y-93420380D01*
X143787857Y-93396571D01*
X143787857Y-93229904D01*
X143692619Y-93229904D01*
X144002142Y-93444190D02*
X144002142Y-92944190D01*
X144287857Y-93444190D01*
X144287857Y-92944190D01*
X144525952Y-93444190D02*
X144525952Y-92944190D01*
X144645000Y-92944190D01*
X144716428Y-92968000D01*
X144764047Y-93015619D01*
X144787857Y-93063238D01*
X144811666Y-93158476D01*
X144811666Y-93229904D01*
X144787857Y-93325142D01*
X144764047Y-93372761D01*
X144716428Y-93420380D01*
X144645000Y-93444190D01*
X144525952Y-93444190D01*
X143998190Y-106144190D02*
X143831523Y-105906095D01*
X143712476Y-106144190D02*
X143712476Y-105644190D01*
X143902952Y-105644190D01*
X143950571Y-105668000D01*
X143974380Y-105691809D01*
X143998190Y-105739428D01*
X143998190Y-105810857D01*
X143974380Y-105858476D01*
X143950571Y-105882285D01*
X143902952Y-105906095D01*
X143712476Y-105906095D01*
X144188666Y-106120380D02*
X144260095Y-106144190D01*
X144379142Y-106144190D01*
X144426761Y-106120380D01*
X144450571Y-106096571D01*
X144474380Y-106048952D01*
X144474380Y-106001333D01*
X144450571Y-105953714D01*
X144426761Y-105929904D01*
X144379142Y-105906095D01*
X144283904Y-105882285D01*
X144236285Y-105858476D01*
X144212476Y-105834666D01*
X144188666Y-105787047D01*
X144188666Y-105739428D01*
X144212476Y-105691809D01*
X144236285Y-105668000D01*
X144283904Y-105644190D01*
X144402952Y-105644190D01*
X144474380Y-105668000D01*
X144617238Y-105644190D02*
X144902952Y-105644190D01*
X144760095Y-106144190D02*
X144760095Y-105644190D01*
X143891047Y-103604190D02*
X143891047Y-103104190D01*
X144010095Y-103104190D01*
X144081523Y-103128000D01*
X144129142Y-103175619D01*
X144152952Y-103223238D01*
X144176761Y-103318476D01*
X144176761Y-103389904D01*
X144152952Y-103485142D01*
X144129142Y-103532761D01*
X144081523Y-103580380D01*
X144010095Y-103604190D01*
X143891047Y-103604190D01*
X144676761Y-103556571D02*
X144652952Y-103580380D01*
X144581523Y-103604190D01*
X144533904Y-103604190D01*
X144462476Y-103580380D01*
X144414857Y-103532761D01*
X144391047Y-103485142D01*
X144367238Y-103389904D01*
X144367238Y-103318476D01*
X144391047Y-103223238D01*
X144414857Y-103175619D01*
X144462476Y-103128000D01*
X144533904Y-103104190D01*
X144581523Y-103104190D01*
X144652952Y-103128000D01*
X144676761Y-103151809D01*
X144188666Y-101016571D02*
X144164857Y-101040380D01*
X144093428Y-101064190D01*
X144045809Y-101064190D01*
X143974380Y-101040380D01*
X143926761Y-100992761D01*
X143902952Y-100945142D01*
X143879142Y-100849904D01*
X143879142Y-100778476D01*
X143902952Y-100683238D01*
X143926761Y-100635619D01*
X143974380Y-100588000D01*
X144045809Y-100564190D01*
X144093428Y-100564190D01*
X144164857Y-100588000D01*
X144188666Y-100611809D01*
X144379142Y-101040380D02*
X144450571Y-101064190D01*
X144569619Y-101064190D01*
X144617238Y-101040380D01*
X144641047Y-101016571D01*
X144664857Y-100968952D01*
X144664857Y-100921333D01*
X144641047Y-100873714D01*
X144617238Y-100849904D01*
X144569619Y-100826095D01*
X144474380Y-100802285D01*
X144426761Y-100778476D01*
X144402952Y-100754666D01*
X144379142Y-100707047D01*
X144379142Y-100659428D01*
X144402952Y-100611809D01*
X144426761Y-100588000D01*
X144474380Y-100564190D01*
X144593428Y-100564190D01*
X144664857Y-100588000D01*
X143847380Y-98476571D02*
X143823571Y-98500380D01*
X143752142Y-98524190D01*
X143704523Y-98524190D01*
X143633095Y-98500380D01*
X143585476Y-98452761D01*
X143561666Y-98405142D01*
X143537857Y-98309904D01*
X143537857Y-98238476D01*
X143561666Y-98143238D01*
X143585476Y-98095619D01*
X143633095Y-98048000D01*
X143704523Y-98024190D01*
X143752142Y-98024190D01*
X143823571Y-98048000D01*
X143847380Y-98071809D01*
X144299761Y-98524190D02*
X144061666Y-98524190D01*
X144061666Y-98024190D01*
X144466428Y-98524190D02*
X144466428Y-98024190D01*
X144752142Y-98524190D02*
X144537857Y-98238476D01*
X144752142Y-98024190D02*
X144466428Y-98309904D01*
X143371190Y-95546690D02*
X143371190Y-95046690D01*
X143490238Y-95046690D01*
X143561666Y-95070500D01*
X143609285Y-95118119D01*
X143633095Y-95165738D01*
X143656904Y-95260976D01*
X143656904Y-95332404D01*
X143633095Y-95427642D01*
X143609285Y-95475261D01*
X143561666Y-95522880D01*
X143490238Y-95546690D01*
X143371190Y-95546690D01*
X143871190Y-95546690D02*
X143871190Y-95046690D01*
X144109285Y-95546690D02*
X144109285Y-95046690D01*
X144395000Y-95546690D01*
X144395000Y-95046690D01*
X144990238Y-95022880D02*
X144561666Y-95665738D01*
X143359285Y-96421690D02*
X143359285Y-95921690D01*
X143525952Y-96278833D01*
X143692619Y-95921690D01*
X143692619Y-96421690D01*
X144025952Y-95921690D02*
X144121190Y-95921690D01*
X144168809Y-95945500D01*
X144216428Y-95993119D01*
X144240238Y-96088357D01*
X144240238Y-96255023D01*
X144216428Y-96350261D01*
X144168809Y-96397880D01*
X144121190Y-96421690D01*
X144025952Y-96421690D01*
X143978333Y-96397880D01*
X143930714Y-96350261D01*
X143906904Y-96255023D01*
X143906904Y-96088357D01*
X143930714Y-95993119D01*
X143978333Y-95945500D01*
X144025952Y-95921690D01*
X144430714Y-96397880D02*
X144502142Y-96421690D01*
X144621190Y-96421690D01*
X144668809Y-96397880D01*
X144692619Y-96374071D01*
X144716428Y-96326452D01*
X144716428Y-96278833D01*
X144692619Y-96231214D01*
X144668809Y-96207404D01*
X144621190Y-96183595D01*
X144525952Y-96159785D01*
X144478333Y-96135976D01*
X144454523Y-96112166D01*
X144430714Y-96064547D01*
X144430714Y-96016928D01*
X144454523Y-95969309D01*
X144478333Y-95945500D01*
X144525952Y-95921690D01*
X144645000Y-95921690D01*
X144716428Y-95945500D01*
X144930714Y-96421690D02*
X144930714Y-95921690D01*
X143406904Y-90404190D02*
X143716428Y-90404190D01*
X143549761Y-90594666D01*
X143621190Y-90594666D01*
X143668809Y-90618476D01*
X143692619Y-90642285D01*
X143716428Y-90689904D01*
X143716428Y-90808952D01*
X143692619Y-90856571D01*
X143668809Y-90880380D01*
X143621190Y-90904190D01*
X143478333Y-90904190D01*
X143430714Y-90880380D01*
X143406904Y-90856571D01*
X143930714Y-90856571D02*
X143954523Y-90880380D01*
X143930714Y-90904190D01*
X143906904Y-90880380D01*
X143930714Y-90856571D01*
X143930714Y-90904190D01*
X144121190Y-90404190D02*
X144430714Y-90404190D01*
X144264047Y-90594666D01*
X144335476Y-90594666D01*
X144383095Y-90618476D01*
X144406904Y-90642285D01*
X144430714Y-90689904D01*
X144430714Y-90808952D01*
X144406904Y-90856571D01*
X144383095Y-90880380D01*
X144335476Y-90904190D01*
X144192619Y-90904190D01*
X144145000Y-90880380D01*
X144121190Y-90856571D01*
X144573571Y-90404190D02*
X144740238Y-90904190D01*
X144906904Y-90404190D01*
X138049047Y-91698000D02*
X138001428Y-91674190D01*
X137930000Y-91674190D01*
X137858571Y-91698000D01*
X137810952Y-91745619D01*
X137787142Y-91793238D01*
X137763333Y-91888476D01*
X137763333Y-91959904D01*
X137787142Y-92055142D01*
X137810952Y-92102761D01*
X137858571Y-92150380D01*
X137930000Y-92174190D01*
X137977619Y-92174190D01*
X138049047Y-92150380D01*
X138072857Y-92126571D01*
X138072857Y-91959904D01*
X137977619Y-91959904D01*
X138287142Y-92174190D02*
X138287142Y-91674190D01*
X138572857Y-92174190D01*
X138572857Y-91674190D01*
X138810952Y-92174190D02*
X138810952Y-91674190D01*
X138930000Y-91674190D01*
X139001428Y-91698000D01*
X139049047Y-91745619D01*
X139072857Y-91793238D01*
X139096666Y-91888476D01*
X139096666Y-91959904D01*
X139072857Y-92055142D01*
X139049047Y-92102761D01*
X139001428Y-92150380D01*
X138930000Y-92174190D01*
X138810952Y-92174190D01*
X137644285Y-94714190D02*
X137644285Y-94214190D01*
X137810952Y-94571333D01*
X137977619Y-94214190D01*
X137977619Y-94714190D01*
X138215714Y-94714190D02*
X138215714Y-94214190D01*
X138430000Y-94690380D02*
X138501428Y-94714190D01*
X138620476Y-94714190D01*
X138668095Y-94690380D01*
X138691904Y-94666571D01*
X138715714Y-94618952D01*
X138715714Y-94571333D01*
X138691904Y-94523714D01*
X138668095Y-94499904D01*
X138620476Y-94476095D01*
X138525238Y-94452285D01*
X138477619Y-94428476D01*
X138453809Y-94404666D01*
X138430000Y-94357047D01*
X138430000Y-94309428D01*
X138453809Y-94261809D01*
X138477619Y-94238000D01*
X138525238Y-94214190D01*
X138644285Y-94214190D01*
X138715714Y-94238000D01*
X139025238Y-94214190D02*
X139120476Y-94214190D01*
X139168095Y-94238000D01*
X139215714Y-94285619D01*
X139239523Y-94380857D01*
X139239523Y-94547523D01*
X139215714Y-94642761D01*
X139168095Y-94690380D01*
X139120476Y-94714190D01*
X139025238Y-94714190D01*
X138977619Y-94690380D01*
X138930000Y-94642761D01*
X138906190Y-94547523D01*
X138906190Y-94380857D01*
X138930000Y-94285619D01*
X138977619Y-94238000D01*
X139025238Y-94214190D01*
X138132380Y-97206571D02*
X138108571Y-97230380D01*
X138037142Y-97254190D01*
X137989523Y-97254190D01*
X137918095Y-97230380D01*
X137870476Y-97182761D01*
X137846666Y-97135142D01*
X137822857Y-97039904D01*
X137822857Y-96968476D01*
X137846666Y-96873238D01*
X137870476Y-96825619D01*
X137918095Y-96778000D01*
X137989523Y-96754190D01*
X138037142Y-96754190D01*
X138108571Y-96778000D01*
X138132380Y-96801809D01*
X138584761Y-97254190D02*
X138346666Y-97254190D01*
X138346666Y-96754190D01*
X138751428Y-97254190D02*
X138751428Y-96754190D01*
X139037142Y-97254190D02*
X138822857Y-96968476D01*
X139037142Y-96754190D02*
X138751428Y-97039904D01*
X137644285Y-99794190D02*
X137644285Y-99294190D01*
X137810952Y-99651333D01*
X137977619Y-99294190D01*
X137977619Y-99794190D01*
X138310952Y-99294190D02*
X138406190Y-99294190D01*
X138453809Y-99318000D01*
X138501428Y-99365619D01*
X138525238Y-99460857D01*
X138525238Y-99627523D01*
X138501428Y-99722761D01*
X138453809Y-99770380D01*
X138406190Y-99794190D01*
X138310952Y-99794190D01*
X138263333Y-99770380D01*
X138215714Y-99722761D01*
X138191904Y-99627523D01*
X138191904Y-99460857D01*
X138215714Y-99365619D01*
X138263333Y-99318000D01*
X138310952Y-99294190D01*
X138715714Y-99770380D02*
X138787142Y-99794190D01*
X138906190Y-99794190D01*
X138953809Y-99770380D01*
X138977619Y-99746571D01*
X139001428Y-99698952D01*
X139001428Y-99651333D01*
X138977619Y-99603714D01*
X138953809Y-99579904D01*
X138906190Y-99556095D01*
X138810952Y-99532285D01*
X138763333Y-99508476D01*
X138739523Y-99484666D01*
X138715714Y-99437047D01*
X138715714Y-99389428D01*
X138739523Y-99341809D01*
X138763333Y-99318000D01*
X138810952Y-99294190D01*
X138930000Y-99294190D01*
X139001428Y-99318000D01*
X139215714Y-99794190D02*
X139215714Y-99294190D01*
X138346666Y-102286571D02*
X138322857Y-102310380D01*
X138251428Y-102334190D01*
X138203809Y-102334190D01*
X138132380Y-102310380D01*
X138084761Y-102262761D01*
X138060952Y-102215142D01*
X138037142Y-102119904D01*
X138037142Y-102048476D01*
X138060952Y-101953238D01*
X138084761Y-101905619D01*
X138132380Y-101858000D01*
X138203809Y-101834190D01*
X138251428Y-101834190D01*
X138322857Y-101858000D01*
X138346666Y-101881809D01*
X138537142Y-102310380D02*
X138608571Y-102334190D01*
X138727619Y-102334190D01*
X138775238Y-102310380D01*
X138799047Y-102286571D01*
X138822857Y-102238952D01*
X138822857Y-102191333D01*
X138799047Y-102143714D01*
X138775238Y-102119904D01*
X138727619Y-102096095D01*
X138632380Y-102072285D01*
X138584761Y-102048476D01*
X138560952Y-102024666D01*
X138537142Y-101977047D01*
X138537142Y-101929428D01*
X138560952Y-101881809D01*
X138584761Y-101858000D01*
X138632380Y-101834190D01*
X138751428Y-101834190D01*
X138822857Y-101858000D01*
X137691904Y-104374190D02*
X138001428Y-104374190D01*
X137834761Y-104564666D01*
X137906190Y-104564666D01*
X137953809Y-104588476D01*
X137977619Y-104612285D01*
X138001428Y-104659904D01*
X138001428Y-104778952D01*
X137977619Y-104826571D01*
X137953809Y-104850380D01*
X137906190Y-104874190D01*
X137763333Y-104874190D01*
X137715714Y-104850380D01*
X137691904Y-104826571D01*
X138215714Y-104826571D02*
X138239523Y-104850380D01*
X138215714Y-104874190D01*
X138191904Y-104850380D01*
X138215714Y-104826571D01*
X138215714Y-104874190D01*
X138406190Y-104374190D02*
X138715714Y-104374190D01*
X138549047Y-104564666D01*
X138620476Y-104564666D01*
X138668095Y-104588476D01*
X138691904Y-104612285D01*
X138715714Y-104659904D01*
X138715714Y-104778952D01*
X138691904Y-104826571D01*
X138668095Y-104850380D01*
X138620476Y-104874190D01*
X138477619Y-104874190D01*
X138430000Y-104850380D01*
X138406190Y-104826571D01*
X138858571Y-104374190D02*
X139025238Y-104874190D01*
X139191904Y-104374190D01*
X146835904Y-112248190D02*
X147145428Y-112248190D01*
X146978761Y-112438666D01*
X147050190Y-112438666D01*
X147097809Y-112462476D01*
X147121619Y-112486285D01*
X147145428Y-112533904D01*
X147145428Y-112652952D01*
X147121619Y-112700571D01*
X147097809Y-112724380D01*
X147050190Y-112748190D01*
X146907333Y-112748190D01*
X146859714Y-112724380D01*
X146835904Y-112700571D01*
X147359714Y-112700571D02*
X147383523Y-112724380D01*
X147359714Y-112748190D01*
X147335904Y-112724380D01*
X147359714Y-112700571D01*
X147359714Y-112748190D01*
X147550190Y-112248190D02*
X147859714Y-112248190D01*
X147693047Y-112438666D01*
X147764476Y-112438666D01*
X147812095Y-112462476D01*
X147835904Y-112486285D01*
X147859714Y-112533904D01*
X147859714Y-112652952D01*
X147835904Y-112700571D01*
X147812095Y-112724380D01*
X147764476Y-112748190D01*
X147621619Y-112748190D01*
X147574000Y-112724380D01*
X147550190Y-112700571D01*
X148002571Y-112248190D02*
X148169238Y-112748190D01*
X148335904Y-112248190D01*
X144950666Y-112748190D02*
X144784000Y-112510095D01*
X144664952Y-112748190D02*
X144664952Y-112248190D01*
X144855428Y-112248190D01*
X144903047Y-112272000D01*
X144926857Y-112295809D01*
X144950666Y-112343428D01*
X144950666Y-112414857D01*
X144926857Y-112462476D01*
X144903047Y-112486285D01*
X144855428Y-112510095D01*
X144664952Y-112510095D01*
X145117333Y-112248190D02*
X145450666Y-112748190D01*
X145450666Y-112248190D02*
X145117333Y-112748190D01*
X142113047Y-112248190D02*
X142398761Y-112248190D01*
X142255904Y-112748190D02*
X142255904Y-112248190D01*
X142517809Y-112248190D02*
X142851142Y-112748190D01*
X142851142Y-112248190D02*
X142517809Y-112748190D01*
X139573047Y-112272000D02*
X139525428Y-112248190D01*
X139454000Y-112248190D01*
X139382571Y-112272000D01*
X139334952Y-112319619D01*
X139311142Y-112367238D01*
X139287333Y-112462476D01*
X139287333Y-112533904D01*
X139311142Y-112629142D01*
X139334952Y-112676761D01*
X139382571Y-112724380D01*
X139454000Y-112748190D01*
X139501619Y-112748190D01*
X139573047Y-112724380D01*
X139596857Y-112700571D01*
X139596857Y-112533904D01*
X139501619Y-112533904D01*
X139811142Y-112748190D02*
X139811142Y-112248190D01*
X140096857Y-112748190D01*
X140096857Y-112248190D01*
X140334952Y-112748190D02*
X140334952Y-112248190D01*
X140454000Y-112248190D01*
X140525428Y-112272000D01*
X140573047Y-112319619D01*
X140596857Y-112367238D01*
X140620666Y-112462476D01*
X140620666Y-112533904D01*
X140596857Y-112629142D01*
X140573047Y-112676761D01*
X140525428Y-112724380D01*
X140454000Y-112748190D01*
X140334952Y-112748190D01*
X146431047Y-117352000D02*
X146383428Y-117328190D01*
X146312000Y-117328190D01*
X146240571Y-117352000D01*
X146192952Y-117399619D01*
X146169142Y-117447238D01*
X146145333Y-117542476D01*
X146145333Y-117613904D01*
X146169142Y-117709142D01*
X146192952Y-117756761D01*
X146240571Y-117804380D01*
X146312000Y-117828190D01*
X146359619Y-117828190D01*
X146431047Y-117804380D01*
X146454857Y-117780571D01*
X146454857Y-117613904D01*
X146359619Y-117613904D01*
X146669142Y-117828190D02*
X146669142Y-117328190D01*
X146954857Y-117828190D01*
X146954857Y-117328190D01*
X147192952Y-117828190D02*
X147192952Y-117328190D01*
X147312000Y-117328190D01*
X147383428Y-117352000D01*
X147431047Y-117399619D01*
X147454857Y-117447238D01*
X147478666Y-117542476D01*
X147478666Y-117613904D01*
X147454857Y-117709142D01*
X147431047Y-117756761D01*
X147383428Y-117804380D01*
X147312000Y-117828190D01*
X147192952Y-117828190D01*
X143533904Y-117328190D02*
X143843428Y-117328190D01*
X143676761Y-117518666D01*
X143748190Y-117518666D01*
X143795809Y-117542476D01*
X143819619Y-117566285D01*
X143843428Y-117613904D01*
X143843428Y-117732952D01*
X143819619Y-117780571D01*
X143795809Y-117804380D01*
X143748190Y-117828190D01*
X143605333Y-117828190D01*
X143557714Y-117804380D01*
X143533904Y-117780571D01*
X144057714Y-117780571D02*
X144081523Y-117804380D01*
X144057714Y-117828190D01*
X144033904Y-117804380D01*
X144057714Y-117780571D01*
X144057714Y-117828190D01*
X144248190Y-117328190D02*
X144557714Y-117328190D01*
X144391047Y-117518666D01*
X144462476Y-117518666D01*
X144510095Y-117542476D01*
X144533904Y-117566285D01*
X144557714Y-117613904D01*
X144557714Y-117732952D01*
X144533904Y-117780571D01*
X144510095Y-117804380D01*
X144462476Y-117828190D01*
X144319619Y-117828190D01*
X144272000Y-117804380D01*
X144248190Y-117780571D01*
X144700571Y-117328190D02*
X144867238Y-117828190D01*
X145033904Y-117328190D01*
X141636761Y-117328190D02*
X141398666Y-117328190D01*
X141374857Y-117566285D01*
X141398666Y-117542476D01*
X141446285Y-117518666D01*
X141565333Y-117518666D01*
X141612952Y-117542476D01*
X141636761Y-117566285D01*
X141660571Y-117613904D01*
X141660571Y-117732952D01*
X141636761Y-117780571D01*
X141612952Y-117804380D01*
X141565333Y-117828190D01*
X141446285Y-117828190D01*
X141398666Y-117804380D01*
X141374857Y-117780571D01*
X141803428Y-117328190D02*
X141970095Y-117828190D01*
X142136761Y-117328190D01*
X147699504Y-87813390D02*
X148009028Y-87813390D01*
X147842361Y-88003866D01*
X147913790Y-88003866D01*
X147961409Y-88027676D01*
X147985219Y-88051485D01*
X148009028Y-88099104D01*
X148009028Y-88218152D01*
X147985219Y-88265771D01*
X147961409Y-88289580D01*
X147913790Y-88313390D01*
X147770933Y-88313390D01*
X147723314Y-88289580D01*
X147699504Y-88265771D01*
X148223314Y-88265771D02*
X148247123Y-88289580D01*
X148223314Y-88313390D01*
X148199504Y-88289580D01*
X148223314Y-88265771D01*
X148223314Y-88313390D01*
X148413790Y-87813390D02*
X148723314Y-87813390D01*
X148556647Y-88003866D01*
X148628076Y-88003866D01*
X148675695Y-88027676D01*
X148699504Y-88051485D01*
X148723314Y-88099104D01*
X148723314Y-88218152D01*
X148699504Y-88265771D01*
X148675695Y-88289580D01*
X148628076Y-88313390D01*
X148485219Y-88313390D01*
X148437600Y-88289580D01*
X148413790Y-88265771D01*
X148866171Y-87813390D02*
X149032838Y-88313390D01*
X149199504Y-87813390D01*
X145071400Y-88338790D02*
X145071400Y-87838790D01*
X145190447Y-87838790D01*
X145261876Y-87862600D01*
X145309495Y-87910219D01*
X145333304Y-87957838D01*
X145357114Y-88053076D01*
X145357114Y-88124504D01*
X145333304Y-88219742D01*
X145309495Y-88267361D01*
X145261876Y-88314980D01*
X145190447Y-88338790D01*
X145071400Y-88338790D01*
X145547590Y-88195933D02*
X145785685Y-88195933D01*
X145499971Y-88338790D02*
X145666638Y-87838790D01*
X145833304Y-88338790D01*
X145928542Y-87838790D02*
X146214257Y-87838790D01*
X146071400Y-88338790D02*
X146071400Y-87838790D01*
X146357114Y-88195933D02*
X146595209Y-88195933D01*
X146309495Y-88338790D02*
X146476161Y-87838790D01*
X146642828Y-88338790D01*
X142951247Y-87964200D02*
X142903628Y-87940390D01*
X142832200Y-87940390D01*
X142760771Y-87964200D01*
X142713152Y-88011819D01*
X142689342Y-88059438D01*
X142665533Y-88154676D01*
X142665533Y-88226104D01*
X142689342Y-88321342D01*
X142713152Y-88368961D01*
X142760771Y-88416580D01*
X142832200Y-88440390D01*
X142879819Y-88440390D01*
X142951247Y-88416580D01*
X142975057Y-88392771D01*
X142975057Y-88226104D01*
X142879819Y-88226104D01*
X143189342Y-88440390D02*
X143189342Y-87940390D01*
X143475057Y-88440390D01*
X143475057Y-87940390D01*
X143713152Y-88440390D02*
X143713152Y-87940390D01*
X143832200Y-87940390D01*
X143903628Y-87964200D01*
X143951247Y-88011819D01*
X143975057Y-88059438D01*
X143998866Y-88154676D01*
X143998866Y-88226104D01*
X143975057Y-88321342D01*
X143951247Y-88368961D01*
X143903628Y-88416580D01*
X143832200Y-88440390D01*
X143713152Y-88440390D01*
X145847619Y-80050485D02*
X145919047Y-80074295D01*
X145942857Y-80098104D01*
X145966666Y-80145723D01*
X145966666Y-80217152D01*
X145942857Y-80264771D01*
X145919047Y-80288580D01*
X145871428Y-80312390D01*
X145680952Y-80312390D01*
X145680952Y-79812390D01*
X145847619Y-79812390D01*
X145895238Y-79836200D01*
X145919047Y-79860009D01*
X145942857Y-79907628D01*
X145942857Y-79955247D01*
X145919047Y-80002866D01*
X145895238Y-80026676D01*
X145847619Y-80050485D01*
X145680952Y-80050485D01*
X146395238Y-79979057D02*
X146395238Y-80312390D01*
X146276190Y-79788580D02*
X146157142Y-80145723D01*
X146466666Y-80145723D01*
X145873019Y-77459685D02*
X145944447Y-77483495D01*
X145968257Y-77507304D01*
X145992066Y-77554923D01*
X145992066Y-77626352D01*
X145968257Y-77673971D01*
X145944447Y-77697780D01*
X145896828Y-77721590D01*
X145706352Y-77721590D01*
X145706352Y-77221590D01*
X145873019Y-77221590D01*
X145920638Y-77245400D01*
X145944447Y-77269209D01*
X145968257Y-77316828D01*
X145968257Y-77364447D01*
X145944447Y-77412066D01*
X145920638Y-77435876D01*
X145873019Y-77459685D01*
X145706352Y-77459685D01*
X146158733Y-77221590D02*
X146468257Y-77221590D01*
X146301590Y-77412066D01*
X146373019Y-77412066D01*
X146420638Y-77435876D01*
X146444447Y-77459685D01*
X146468257Y-77507304D01*
X146468257Y-77626352D01*
X146444447Y-77673971D01*
X146420638Y-77697780D01*
X146373019Y-77721590D01*
X146230161Y-77721590D01*
X146182542Y-77697780D01*
X146158733Y-77673971D01*
X145847619Y-74945085D02*
X145919047Y-74968895D01*
X145942857Y-74992704D01*
X145966666Y-75040323D01*
X145966666Y-75111752D01*
X145942857Y-75159371D01*
X145919047Y-75183180D01*
X145871428Y-75206990D01*
X145680952Y-75206990D01*
X145680952Y-74706990D01*
X145847619Y-74706990D01*
X145895238Y-74730800D01*
X145919047Y-74754609D01*
X145942857Y-74802228D01*
X145942857Y-74849847D01*
X145919047Y-74897466D01*
X145895238Y-74921276D01*
X145847619Y-74945085D01*
X145680952Y-74945085D01*
X146157142Y-74754609D02*
X146180952Y-74730800D01*
X146228571Y-74706990D01*
X146347619Y-74706990D01*
X146395238Y-74730800D01*
X146419047Y-74754609D01*
X146442857Y-74802228D01*
X146442857Y-74849847D01*
X146419047Y-74921276D01*
X146133333Y-75206990D01*
X146442857Y-75206990D01*
X145847619Y-72328885D02*
X145919047Y-72352695D01*
X145942857Y-72376504D01*
X145966666Y-72424123D01*
X145966666Y-72495552D01*
X145942857Y-72543171D01*
X145919047Y-72566980D01*
X145871428Y-72590790D01*
X145680952Y-72590790D01*
X145680952Y-72090790D01*
X145847619Y-72090790D01*
X145895238Y-72114600D01*
X145919047Y-72138409D01*
X145942857Y-72186028D01*
X145942857Y-72233647D01*
X145919047Y-72281266D01*
X145895238Y-72305076D01*
X145847619Y-72328885D01*
X145680952Y-72328885D01*
X146442857Y-72590790D02*
X146157142Y-72590790D01*
X146300000Y-72590790D02*
X146300000Y-72090790D01*
X146252380Y-72162219D01*
X146204761Y-72209838D01*
X146157142Y-72233647D01*
X145643647Y-69625400D02*
X145596028Y-69601590D01*
X145524600Y-69601590D01*
X145453171Y-69625400D01*
X145405552Y-69673019D01*
X145381742Y-69720638D01*
X145357933Y-69815876D01*
X145357933Y-69887304D01*
X145381742Y-69982542D01*
X145405552Y-70030161D01*
X145453171Y-70077780D01*
X145524600Y-70101590D01*
X145572219Y-70101590D01*
X145643647Y-70077780D01*
X145667457Y-70053971D01*
X145667457Y-69887304D01*
X145572219Y-69887304D01*
X145881742Y-70101590D02*
X145881742Y-69601590D01*
X146167457Y-70101590D01*
X146167457Y-69601590D01*
X146405552Y-70101590D02*
X146405552Y-69601590D01*
X146524600Y-69601590D01*
X146596028Y-69625400D01*
X146643647Y-69673019D01*
X146667457Y-69720638D01*
X146691266Y-69815876D01*
X146691266Y-69887304D01*
X146667457Y-69982542D01*
X146643647Y-70030161D01*
X146596028Y-70077780D01*
X146524600Y-70101590D01*
X146405552Y-70101590D01*
D12*
X145542000Y-65124000D02*
X145542000Y-65194000D01*
X146912000Y-63754000D02*
G75*
G03*
X146912000Y-63754000I-1370000J0D01*
G01*
D10*
X123265001Y-121995001D02*
X123265001Y-116915001D01*
X123265001Y-116915001D02*
X130885001Y-116915001D01*
X130885001Y-116915001D02*
X130885001Y-121995001D01*
X113105001Y-113105001D02*
X118185001Y-113105001D01*
X118185001Y-113105001D02*
X118185001Y-119455001D01*
X118185001Y-119455001D02*
X113105001Y-119455001D01*
X113105001Y-119455001D02*
X113105001Y-113105001D01*
X115645001Y-69925001D02*
X115645001Y-87705001D01*
X115645001Y-87705001D02*
X133425001Y-87705001D01*
X133425001Y-87705001D02*
X133425001Y-69925001D01*
X133425001Y-69925001D02*
X115645001Y-69925001D01*
X137235001Y-64845001D02*
X137235001Y-120725001D01*
X114375001Y-62305001D02*
X134695001Y-62305001D01*
X135965001Y-121995001D02*
X113105001Y-121995001D01*
X113105001Y-121995001D02*
X111835001Y-120725001D01*
X111835001Y-120725001D02*
X111835001Y-64845001D01*
X137235001Y-120725001D02*
X135965001Y-121995001D01*
X134695001Y-62305001D02*
X137235001Y-64845001D01*
X111835001Y-64845001D02*
X114375001Y-62305001D01*
D12*
X140308000Y-63754000D02*
G75*
G03*
X140308000Y-63754000I-1370000J0D01*
G01*
X138938000Y-65124000D02*
X138938000Y-65194000D01*
X139386000Y-105724000D02*
X142046000Y-105724000D01*
X139386000Y-92964000D02*
X139386000Y-105724000D01*
X142046000Y-92964000D02*
X142046000Y-105724000D01*
X139386000Y-92964000D02*
X142046000Y-92964000D01*
X139386000Y-91694000D02*
X139386000Y-90364000D01*
X139386000Y-90364000D02*
X140716000Y-90364000D01*
X148396000Y-89348000D02*
X145736000Y-89348000D01*
X148396000Y-104648000D02*
X148396000Y-89348000D01*
X145736000Y-104648000D02*
X145736000Y-89348000D01*
X148396000Y-104648000D02*
X145736000Y-104648000D01*
X148396000Y-105918000D02*
X148396000Y-107248000D01*
X148396000Y-107248000D02*
X147066000Y-107248000D01*
X143610000Y-63754000D02*
G75*
G03*
X143610000Y-63754000I-1370000J0D01*
G01*
X142240000Y-65124000D02*
X142240000Y-65194000D01*
X139496800Y-86612400D02*
X139496800Y-86682400D01*
X140866800Y-85242400D02*
G75*
G03*
X140866800Y-85242400I-1370000J0D01*
G01*
X142053000Y-87588400D02*
X142053000Y-86258400D01*
X143383000Y-87588400D02*
X142053000Y-87588400D01*
X144653000Y-87588400D02*
X144653000Y-84928400D01*
X144653000Y-84928400D02*
X149793000Y-84928400D01*
X144653000Y-87588400D02*
X149793000Y-87588400D01*
X149793000Y-87588400D02*
X149793000Y-84928400D01*
X138624000Y-111566000D02*
X138624000Y-110236000D01*
X139954000Y-111566000D02*
X138624000Y-111566000D01*
X141224000Y-111566000D02*
X141224000Y-108906000D01*
X141224000Y-108906000D02*
X148904000Y-108906000D01*
X141224000Y-111566000D02*
X148904000Y-111566000D01*
X148904000Y-111566000D02*
X148904000Y-108906000D01*
X149522000Y-123056000D02*
X139022000Y-123056000D01*
X149522000Y-118115000D02*
X139022000Y-118115000D01*
X149522000Y-123056000D02*
X149522000Y-118115000D01*
X139022000Y-123056000D02*
X139022000Y-118115000D01*
X149522000Y-120296000D02*
X147915000Y-120296000D01*
X145709000Y-120296000D02*
X145374000Y-120296000D01*
X143169000Y-120296000D02*
X142834000Y-120296000D01*
X140629000Y-120296000D02*
X139022000Y-120296000D01*
X146122000Y-123056000D02*
X146122000Y-121038000D01*
X142421000Y-123056000D02*
X142421000Y-121038000D01*
X147006000Y-68520000D02*
X148336000Y-68520000D01*
X147006000Y-69850000D02*
X147006000Y-68520000D01*
X147006000Y-71120000D02*
X149666000Y-71120000D01*
X149666000Y-71120000D02*
X149666000Y-81340000D01*
X147006000Y-71120000D02*
X147006000Y-81340000D01*
X147006000Y-81340000D02*
X149666000Y-81340000D01*
X148844000Y-65124000D02*
X148844000Y-65194000D01*
X150214000Y-63754000D02*
G75*
G03*
X150214000Y-63754000I-1370000J0D01*
G01*
X143890000Y-68838000D02*
X142110000Y-68838000D01*
X143890000Y-79508000D02*
X143890000Y-68838000D01*
X142120000Y-79508000D02*
X143890000Y-79508000D01*
X142110000Y-79508000D02*
X142110000Y-78108000D01*
X142110000Y-78108000D02*
X139870000Y-78108000D01*
X139870000Y-78108000D02*
X139870000Y-70228000D01*
X139870000Y-70228000D02*
X142110000Y-70228000D01*
X142110000Y-70228000D02*
X142110000Y-68838000D01*
X138217600Y-80102400D02*
X138217600Y-82762400D01*
X140817600Y-80102400D02*
X138217600Y-80102400D01*
X140817600Y-82762400D02*
X138217600Y-82762400D01*
X140817600Y-80102400D02*
X140817600Y-82762400D01*
X142087600Y-80102400D02*
X143417600Y-80102400D01*
X143417600Y-80102400D02*
X143417600Y-81432400D01*
M02*
